<?xml version="1.0" encoding="UTF-8"?>
<svg width="2000px" height="900px" viewBox="0 0 2000 900" version="1.1" xmlns="http://www.w3.org/2000/svg" xmlns:xlink="http://www.w3.org/1999/xlink" style="background: #FFFFFF;">
    <!-- Generator: Sketch 56.2 (81672) - https://sketch.com -->
    <title>bg/section1_P</title>
    <desc>Created with Sketch.</desc>
    <defs>
        <rect id="path-1" x="0" y="0" width="2000" height="900"></rect>
        <polygon id="path-3" points="0 0.0415049505 18.2892621 0.0415049505 18.2892621 19.2511843 0 19.2511843"></polygon>
        <polygon id="path-5" points="0.16306546 0.146376238 96.737901 0.146376238 96.737901 223.059104 0.16306546 223.059104"></polygon>
        <path d="M80.0256634,0.146376238 C75.3200792,0.168871287 70.5254653,3.13314851 70.1078812,10.8305743 L70.1078812,10.8305743 C68.9226139,32.6834059 63.4740594,47.0853069 44.3909703,45.4536238 L44.3909703,45.4536238 C30.0828515,44.2303366 27.3514455,30.3017822 25.2565545,17.6617822 L25.2565545,17.6617822 C23.162297,5.02178218 17.176396,1.19572277 10.185505,3.8390495 L10.185505,3.8390495 C2.37085149,6.79413861 -0.00443564356,40.5230891 0.172039604,61.8208317 L0.172039604,61.8208317 C0.348514851,83.1182574 2.01029703,104.431842 2.3930297,123.978455 L2.3930297,123.978455 C2.77607921,143.525069 5.3379802,170.493782 7.90653465,188.967287 L7.90653465,188.967287 C9.7729901,202.38796 12.3871683,211.642931 12.3871683,211.642931 L12.3871683,211.642931 C12.3871683,211.642931 4.48158416,223.351129 9.89592079,223.053307 L9.89592079,223.053307 C15.3105743,222.755485 20.1200792,219.927129 19.7512871,215.454099 L19.7512871,215.454099 C19.395802,211.139802 15.5317228,185.510653 15.3869307,163.149307 L15.3869307,163.149307 C15.2405545,140.534178 25.8065743,130.762139 46.2691485,132.101069 L46.2691485,132.101069 C66.7320396,133.439366 71.2801584,157.873426 72.8136238,182.864792 L72.8136238,182.864792 C74.3474059,207.856475 71.5304554,213.766653 71.5304554,213.766653 L71.5304554,213.766653 C71.5304554,213.766653 77.814495,222.341069 78.646495,218.77101 L78.646495,218.77101 C79.1692673,216.528158 80.5040792,201.368396 86.6978218,176.003168 L86.6978218,176.003168 C96.8190099,134.553347 97.2210693,84.0025347 96.513901,52.0082376 L96.513901,52.0082376 C95.8067327,20.0136238 92.254099,9.8300198 88.448,4.09663366 L88.448,4.09663366 C86.8587723,1.7029703 83.5269703,0.161584158 80.1305347,0.146376238 L80.1305347,0.146376238" id="path-7"></path>
        <path d="M80.0256634,0.146376238 C75.3200792,0.168871287 70.5254653,3.13314851 70.1078812,10.8305743 L70.1078812,10.8305743 C68.9226139,32.6834059 63.4740594,47.0853069 44.3909703,45.4536238 L44.3909703,45.4536238 C30.0828515,44.2303366 27.3514455,30.3017822 25.2565545,17.6617822 L25.2565545,17.6617822 C23.162297,5.02178218 17.176396,1.19572277 10.185505,3.8390495 L10.185505,3.8390495 C2.37085149,6.79413861 -0.00443564356,40.5230891 0.172039604,61.8208317 L0.172039604,61.8208317 C0.348514851,83.1182574 2.01029703,104.431842 2.3930297,123.978455 L2.3930297,123.978455 C2.77607921,143.525069 5.3379802,170.493782 7.90653465,188.967287 L7.90653465,188.967287 C9.7729901,202.38796 12.3871683,211.642931 12.3871683,211.642931 L12.3871683,211.642931 C12.3871683,211.642931 4.48158416,223.351129 9.89592079,223.053307 L9.89592079,223.053307 C15.3105743,222.755485 20.1200792,219.927129 19.7512871,215.454099 L19.7512871,215.454099 C19.395802,211.139802 15.5317228,185.510653 15.3869307,163.149307 L15.3869307,163.149307 C15.2405545,140.534178 25.8065743,130.762139 46.2691485,132.101069 L46.2691485,132.101069 C66.7320396,133.439366 71.2801584,157.873426 72.8136238,182.864792 L72.8136238,182.864792 C74.3474059,207.856475 71.5304554,213.766653 71.5304554,213.766653 L71.5304554,213.766653 C71.5304554,213.766653 77.814495,222.341069 78.646495,218.77101 L78.646495,218.77101 C79.1692673,216.528158 80.5040792,201.368396 86.6978218,176.003168 L86.6978218,176.003168 C96.8190099,134.553347 97.2210693,84.0025347 96.513901,52.0082376 L96.513901,52.0082376 C95.8067327,20.0136238 92.254099,9.8300198 88.448,4.09663366 L88.448,4.09663366 C86.8587723,1.7029703 83.5269703,0.161584158 80.1305347,0.146376238 L80.1305347,0.146376238" id="path-9"></path>
        <path d="M80.0256634,0.146376238 C75.3200792,0.168871287 70.5254653,3.13314851 70.1078812,10.8305743 L70.1078812,10.8305743 C68.9226139,32.6834059 63.4740594,47.0853069 44.3909703,45.4536238 L44.3909703,45.4536238 C30.0828515,44.2303366 27.3514455,30.3017822 25.2565545,17.6617822 L25.2565545,17.6617822 C23.162297,5.02178218 17.176396,1.19572277 10.185505,3.8390495 L10.185505,3.8390495 C2.37085149,6.79413861 -0.00443564356,40.5230891 0.172039604,61.8208317 L0.172039604,61.8208317 C0.348514851,83.1182574 2.01029703,104.431842 2.3930297,123.978455 L2.3930297,123.978455 C2.77607921,143.525069 5.3379802,170.493782 7.90653465,188.967287 L7.90653465,188.967287 C9.7729901,202.38796 12.3871683,211.642931 12.3871683,211.642931 L12.3871683,211.642931 C12.3871683,211.642931 4.48158416,223.351129 9.89592079,223.053307 L9.89592079,223.053307 C15.3105743,222.755485 20.1200792,219.927129 19.7512871,215.454099 L19.7512871,215.454099 C19.395802,211.139802 15.5317228,185.510653 15.3869307,163.149307 L15.3869307,163.149307 C15.2405545,140.534178 25.8065743,130.762139 46.2691485,132.101069 L46.2691485,132.101069 C66.7320396,133.439366 71.2801584,157.873426 72.8136238,182.864792 L72.8136238,182.864792 C74.3474059,207.856475 71.5304554,213.766653 71.5304554,213.766653 L71.5304554,213.766653 C71.5304554,213.766653 77.814495,222.341069 78.646495,218.77101 L78.646495,218.77101 C79.1692673,216.528158 80.5040792,201.368396 86.6978218,176.003168 L86.6978218,176.003168 C96.8190099,134.553347 97.2210693,84.0025347 96.513901,52.0082376 L96.513901,52.0082376 C95.8067327,20.0136238 92.254099,9.8300198 88.448,4.09663366 L88.448,4.09663366 C86.8587723,1.7029703 83.5269703,0.161584158 80.1305347,0.146376238 L80.1305347,0.146376238" id="path-11"></path>
        <path d="M80.0256634,0.146376238 C75.3200792,0.168871287 70.5254653,3.13314851 70.1078812,10.8305743 L70.1078812,10.8305743 C68.9226139,32.6834059 63.4740594,47.0853069 44.3909703,45.4536238 L44.3909703,45.4536238 C30.0828515,44.2303366 27.3514455,30.3017822 25.2565545,17.6617822 L25.2565545,17.6617822 C23.162297,5.02178218 17.176396,1.19572277 10.185505,3.8390495 L10.185505,3.8390495 C2.37085149,6.79413861 -0.00443564356,40.5230891 0.172039604,61.8208317 L0.172039604,61.8208317 C0.348514851,83.1182574 2.01029703,104.431842 2.3930297,123.978455 L2.3930297,123.978455 C2.77607921,143.525069 5.3379802,170.493782 7.90653465,188.967287 L7.90653465,188.967287 C9.7729901,202.38796 12.3871683,211.642931 12.3871683,211.642931 L12.3871683,211.642931 C12.3871683,211.642931 4.48158416,223.351129 9.89592079,223.053307 L9.89592079,223.053307 C15.3105743,222.755485 20.1200792,219.927129 19.7512871,215.454099 L19.7512871,215.454099 C19.395802,211.139802 15.5317228,185.510653 15.3869307,163.149307 L15.3869307,163.149307 C15.2405545,140.534178 25.8065743,130.762139 46.2691485,132.101069 L46.2691485,132.101069 C66.7320396,133.439366 71.2801584,157.873426 72.8136238,182.864792 L72.8136238,182.864792 C74.3474059,207.856475 71.5304554,213.766653 71.5304554,213.766653 L71.5304554,213.766653 C71.5304554,213.766653 77.814495,222.341069 78.646495,218.77101 L78.646495,218.77101 C79.1692673,216.528158 80.5040792,201.368396 86.6978218,176.003168 L86.6978218,176.003168 C96.8190099,134.553347 97.2210693,84.0025347 96.513901,52.0082376 L96.513901,52.0082376 C95.8067327,20.0136238 92.254099,9.8300198 88.448,4.09663366 L88.448,4.09663366 C86.8587723,1.7029703 83.5269703,0.161584158 80.1305347,0.146376238 L80.1305347,0.146376238" id="path-13"></path>
        <path d="M80.0256634,0.146376238 C75.3200792,0.168871287 70.5254653,3.13314851 70.1078812,10.8305743 L70.1078812,10.8305743 C68.9226139,32.6834059 63.4740594,47.0853069 44.3909703,45.4536238 L44.3909703,45.4536238 C30.0828515,44.2303366 27.3514455,30.3017822 25.2565545,17.6617822 L25.2565545,17.6617822 C23.162297,5.02178218 17.176396,1.19572277 10.185505,3.8390495 L10.185505,3.8390495 C2.37085149,6.79413861 -0.00443564356,40.5230891 0.172039604,61.8208317 L0.172039604,61.8208317 C0.348514851,83.1182574 2.01029703,104.431842 2.3930297,123.978455 L2.3930297,123.978455 C2.77607921,143.525069 5.3379802,170.493782 7.90653465,188.967287 L7.90653465,188.967287 C9.7729901,202.38796 12.3871683,211.642931 12.3871683,211.642931 L12.3871683,211.642931 C12.3871683,211.642931 4.48158416,223.351129 9.89592079,223.053307 L9.89592079,223.053307 C15.3105743,222.755485 20.1200792,219.927129 19.7512871,215.454099 L19.7512871,215.454099 C19.395802,211.139802 15.5317228,185.510653 15.3869307,163.149307 L15.3869307,163.149307 C15.2405545,140.534178 25.8065743,130.762139 46.2691485,132.101069 L46.2691485,132.101069 C66.7320396,133.439366 71.2801584,157.873426 72.8136238,182.864792 L72.8136238,182.864792 C74.3474059,207.856475 71.5304554,213.766653 71.5304554,213.766653 L71.5304554,213.766653 C71.5304554,213.766653 77.814495,222.341069 78.646495,218.77101 L78.646495,218.77101 C79.1692673,216.528158 80.5040792,201.368396 86.6978218,176.003168 L86.6978218,176.003168 C96.8190099,134.553347 97.2210693,84.0025347 96.513901,52.0082376 L96.513901,52.0082376 C95.8067327,20.0136238 92.254099,9.8300198 88.448,4.09663366 L88.448,4.09663366 C86.8587723,1.7029703 83.5269703,0.161584158 80.1305347,0.146376238 L80.1305347,0.146376238" id="path-15"></path>
        <path d="M80.0256634,0.146376238 C75.3200792,0.168871287 70.5254653,3.13314851 70.1078812,10.8305743 L70.1078812,10.8305743 C68.9226139,32.6834059 63.4740594,47.0853069 44.3909703,45.4536238 L44.3909703,45.4536238 C30.0828515,44.2303366 27.3514455,30.3017822 25.2565545,17.6617822 L25.2565545,17.6617822 C23.162297,5.02178218 17.176396,1.19572277 10.185505,3.8390495 L10.185505,3.8390495 C2.37085149,6.79413861 -0.00443564356,40.5230891 0.172039604,61.8208317 L0.172039604,61.8208317 C0.348514851,83.1182574 2.01029703,104.431842 2.3930297,123.978455 L2.3930297,123.978455 C2.77607921,143.525069 5.3379802,170.493782 7.90653465,188.967287 L7.90653465,188.967287 C9.7729901,202.38796 12.3871683,211.642931 12.3871683,211.642931 L12.3871683,211.642931 C12.3871683,211.642931 4.48158416,223.351129 9.89592079,223.053307 L9.89592079,223.053307 C15.3105743,222.755485 20.1200792,219.927129 19.7512871,215.454099 L19.7512871,215.454099 C19.395802,211.139802 15.5317228,185.510653 15.3869307,163.149307 L15.3869307,163.149307 C15.2405545,140.534178 25.8065743,130.762139 46.2691485,132.101069 L46.2691485,132.101069 C66.7320396,133.439366 71.2801584,157.873426 72.8136238,182.864792 L72.8136238,182.864792 C74.3474059,207.856475 71.5304554,213.766653 71.5304554,213.766653 L71.5304554,213.766653 C71.5304554,213.766653 77.814495,222.341069 78.646495,218.77101 L78.646495,218.77101 C79.1692673,216.528158 80.5040792,201.368396 86.6978218,176.003168 L86.6978218,176.003168 C96.8190099,134.553347 97.2210693,84.0025347 96.513901,52.0082376 L96.513901,52.0082376 C95.8067327,20.0136238 92.254099,9.8300198 88.448,4.09663366 L88.448,4.09663366 C86.8587723,1.7029703 83.5269703,0.161584158 80.1305347,0.146376238 L80.1305347,0.146376238" id="path-17"></path>
        <path d="M80.0256634,0.146376238 C75.3200792,0.168871287 70.5254653,3.13314851 70.1078812,10.8305743 L70.1078812,10.8305743 C68.9226139,32.6834059 63.4740594,47.0853069 44.3909703,45.4536238 L44.3909703,45.4536238 C30.0828515,44.2303366 27.3514455,30.3017822 25.2565545,17.6617822 L25.2565545,17.6617822 C23.162297,5.02178218 17.176396,1.19572277 10.185505,3.8390495 L10.185505,3.8390495 C2.37085149,6.79413861 -0.00443564356,40.5230891 0.172039604,61.8208317 L0.172039604,61.8208317 C0.348514851,83.1182574 2.01029703,104.431842 2.3930297,123.978455 L2.3930297,123.978455 C2.77607921,143.525069 5.3379802,170.493782 7.90653465,188.967287 L7.90653465,188.967287 C9.7729901,202.38796 12.3871683,211.642931 12.3871683,211.642931 L12.3871683,211.642931 C12.3871683,211.642931 4.48158416,223.351129 9.89592079,223.053307 L9.89592079,223.053307 C15.3105743,222.755485 20.1200792,219.927129 19.7512871,215.454099 L19.7512871,215.454099 C19.395802,211.139802 15.5317228,185.510653 15.3869307,163.149307 L15.3869307,163.149307 C15.2405545,140.534178 25.8065743,130.762139 46.2691485,132.101069 L46.2691485,132.101069 C66.7320396,133.439366 71.2801584,157.873426 72.8136238,182.864792 L72.8136238,182.864792 C74.3474059,207.856475 71.5304554,213.766653 71.5304554,213.766653 L71.5304554,213.766653 C71.5304554,213.766653 77.814495,222.341069 78.646495,218.77101 L78.646495,218.77101 C79.1692673,216.528158 80.5040792,201.368396 86.6978218,176.003168 L86.6978218,176.003168 C96.8190099,134.553347 97.2210693,84.0025347 96.513901,52.0082376 L96.513901,52.0082376 C95.8067327,20.0136238 92.254099,9.8300198 88.448,4.09663366 L88.448,4.09663366 C86.8587723,1.7029703 83.5269703,0.161584158 80.1305347,0.146376238 L80.1305347,0.146376238" id="path-19"></path>
        <path d="M80.0256634,0.146376238 C75.3200792,0.168871287 70.5254653,3.13314851 70.1078812,10.8305743 L70.1078812,10.8305743 C68.9226139,32.6834059 63.4740594,47.0853069 44.3909703,45.4536238 L44.3909703,45.4536238 C30.0828515,44.2303366 27.3514455,30.3017822 25.2565545,17.6617822 L25.2565545,17.6617822 C23.162297,5.02178218 17.176396,1.19572277 10.185505,3.8390495 L10.185505,3.8390495 C2.37085149,6.79413861 -0.00443564356,40.5230891 0.172039604,61.8208317 L0.172039604,61.8208317 C0.348514851,83.1182574 2.01029703,104.431842 2.3930297,123.978455 L2.3930297,123.978455 C2.77607921,143.525069 5.3379802,170.493782 7.90653465,188.967287 L7.90653465,188.967287 C9.7729901,202.38796 12.3871683,211.642931 12.3871683,211.642931 L12.3871683,211.642931 C12.3871683,211.642931 4.48158416,223.351129 9.89592079,223.053307 L9.89592079,223.053307 C15.3105743,222.755485 20.1200792,219.927129 19.7512871,215.454099 L19.7512871,215.454099 C19.395802,211.139802 15.5317228,185.510653 15.3869307,163.149307 L15.3869307,163.149307 C15.2405545,140.534178 25.8065743,130.762139 46.2691485,132.101069 L46.2691485,132.101069 C66.7320396,133.439366 71.2801584,157.873426 72.8136238,182.864792 L72.8136238,182.864792 C74.3474059,207.856475 71.5304554,213.766653 71.5304554,213.766653 L71.5304554,213.766653 C71.5304554,213.766653 77.814495,222.341069 78.646495,218.77101 L78.646495,218.77101 C79.1692673,216.528158 80.5040792,201.368396 86.6978218,176.003168 L86.6978218,176.003168 C96.8190099,134.553347 97.2210693,84.0025347 96.513901,52.0082376 L96.513901,52.0082376 C95.8067327,20.0136238 92.254099,9.8300198 88.448,4.09663366 L88.448,4.09663366 C86.8587723,1.7029703 83.5269703,0.161584158 80.1305347,0.146376238 L80.1305347,0.146376238" id="path-21"></path>
        <path d="M80.0256634,0.146376238 C75.3200792,0.168871287 70.5254653,3.13314851 70.1078812,10.8305743 L70.1078812,10.8305743 C68.9226139,32.6834059 63.4740594,47.0853069 44.3909703,45.4536238 L44.3909703,45.4536238 C30.0828515,44.2303366 27.3514455,30.3017822 25.2565545,17.6617822 L25.2565545,17.6617822 C23.162297,5.02178218 17.176396,1.19572277 10.185505,3.8390495 L10.185505,3.8390495 C2.37085149,6.79413861 -0.00443564356,40.5230891 0.172039604,61.8208317 L0.172039604,61.8208317 C0.348514851,83.1182574 2.01029703,104.431842 2.3930297,123.978455 L2.3930297,123.978455 C2.77607921,143.525069 5.3379802,170.493782 7.90653465,188.967287 L7.90653465,188.967287 C9.7729901,202.38796 12.3871683,211.642931 12.3871683,211.642931 L12.3871683,211.642931 C12.3871683,211.642931 4.48158416,223.351129 9.89592079,223.053307 L9.89592079,223.053307 C15.3105743,222.755485 20.1200792,219.927129 19.7512871,215.454099 L19.7512871,215.454099 C19.395802,211.139802 15.5317228,185.510653 15.3869307,163.149307 L15.3869307,163.149307 C15.2405545,140.534178 25.8065743,130.762139 46.2691485,132.101069 L46.2691485,132.101069 C66.7320396,133.439366 71.2801584,157.873426 72.8136238,182.864792 L72.8136238,182.864792 C74.3474059,207.856475 71.5304554,213.766653 71.5304554,213.766653 L71.5304554,213.766653 C71.5304554,213.766653 77.814495,222.341069 78.646495,218.77101 L78.646495,218.77101 C79.1692673,216.528158 80.5040792,201.368396 86.6978218,176.003168 L86.6978218,176.003168 C96.8190099,134.553347 97.2210693,84.0025347 96.513901,52.0082376 L96.513901,52.0082376 C95.8067327,20.0136238 92.254099,9.8300198 88.448,4.09663366 L88.448,4.09663366 C86.8587723,1.7029703 83.5269703,0.161584158 80.1305347,0.146376238 L80.1305347,0.146376238" id="path-23"></path>
        <path d="M80.0256634,0.146376238 C75.3200792,0.168871287 70.5254653,3.13314851 70.1078812,10.8305743 L70.1078812,10.8305743 C68.9226139,32.6834059 63.4740594,47.0853069 44.3909703,45.4536238 L44.3909703,45.4536238 C30.0828515,44.2303366 27.3514455,30.3017822 25.2565545,17.6617822 L25.2565545,17.6617822 C23.162297,5.02178218 17.176396,1.19572277 10.185505,3.8390495 L10.185505,3.8390495 C2.37085149,6.79413861 -0.00443564356,40.5230891 0.172039604,61.8208317 L0.172039604,61.8208317 C0.348514851,83.1182574 2.01029703,104.431842 2.3930297,123.978455 L2.3930297,123.978455 C2.77607921,143.525069 5.3379802,170.493782 7.90653465,188.967287 L7.90653465,188.967287 C9.7729901,202.38796 12.3871683,211.642931 12.3871683,211.642931 L12.3871683,211.642931 C12.3871683,211.642931 4.48158416,223.351129 9.89592079,223.053307 L9.89592079,223.053307 C15.3105743,222.755485 20.1200792,219.927129 19.7512871,215.454099 L19.7512871,215.454099 C19.395802,211.139802 15.5317228,185.510653 15.3869307,163.149307 L15.3869307,163.149307 C15.2405545,140.534178 25.8065743,130.762139 46.2691485,132.101069 L46.2691485,132.101069 C66.7320396,133.439366 71.2801584,157.873426 72.8136238,182.864792 L72.8136238,182.864792 C74.3474059,207.856475 71.5304554,213.766653 71.5304554,213.766653 L71.5304554,213.766653 C71.5304554,213.766653 77.814495,222.341069 78.646495,218.77101 L78.646495,218.77101 C79.1692673,216.528158 80.5040792,201.368396 86.6978218,176.003168 L86.6978218,176.003168 C96.8190099,134.553347 97.2210693,84.0025347 96.513901,52.0082376 L96.513901,52.0082376 C95.8067327,20.0136238 92.254099,9.8300198 88.448,4.09663366 L88.448,4.09663366 C86.8587723,1.7029703 83.5269703,0.161584158 80.1305347,0.146376238 L80.1305347,0.146376238" id="path-25"></path>
        <path d="M80.0256634,0.146376238 C75.3200792,0.168871287 70.5254653,3.13314851 70.1078812,10.8305743 L70.1078812,10.8305743 C68.9226139,32.6834059 63.4740594,47.0853069 44.3909703,45.4536238 L44.3909703,45.4536238 C30.0828515,44.2303366 27.3514455,30.3017822 25.2565545,17.6617822 L25.2565545,17.6617822 C23.162297,5.02178218 17.176396,1.19572277 10.185505,3.8390495 L10.185505,3.8390495 C2.37085149,6.79413861 -0.00443564356,40.5230891 0.172039604,61.8208317 L0.172039604,61.8208317 C0.348514851,83.1182574 2.01029703,104.431842 2.3930297,123.978455 L2.3930297,123.978455 C2.77607921,143.525069 5.3379802,170.493782 7.90653465,188.967287 L7.90653465,188.967287 C9.7729901,202.38796 12.3871683,211.642931 12.3871683,211.642931 L12.3871683,211.642931 C12.3871683,211.642931 4.48158416,223.351129 9.89592079,223.053307 L9.89592079,223.053307 C15.3105743,222.755485 20.1200792,219.927129 19.7512871,215.454099 L19.7512871,215.454099 C19.395802,211.139802 15.5317228,185.510653 15.3869307,163.149307 L15.3869307,163.149307 C15.2405545,140.534178 25.8065743,130.762139 46.2691485,132.101069 L46.2691485,132.101069 C66.7320396,133.439366 71.2801584,157.873426 72.8136238,182.864792 L72.8136238,182.864792 C74.3474059,207.856475 71.5304554,213.766653 71.5304554,213.766653 L71.5304554,213.766653 C71.5304554,213.766653 77.814495,222.341069 78.646495,218.77101 L78.646495,218.77101 C79.1692673,216.528158 80.5040792,201.368396 86.6978218,176.003168 L86.6978218,176.003168 C96.8190099,134.553347 97.2210693,84.0025347 96.513901,52.0082376 L96.513901,52.0082376 C95.8067327,20.0136238 92.254099,9.8300198 88.448,4.09663366 L88.448,4.09663366 C86.8587723,1.7029703 83.5269703,0.161584158 80.1305347,0.146376238 L80.1305347,0.146376238" id="path-27"></path>
        <path d="M80.0256634,0.146376238 C75.3200792,0.168871287 70.5254653,3.13314851 70.1078812,10.8305743 L70.1078812,10.8305743 C68.9226139,32.6834059 63.4740594,47.0853069 44.3909703,45.4536238 L44.3909703,45.4536238 C30.0828515,44.2303366 27.3514455,30.3017822 25.2565545,17.6617822 L25.2565545,17.6617822 C23.162297,5.02178218 17.176396,1.19572277 10.185505,3.8390495 L10.185505,3.8390495 C2.37085149,6.79413861 -0.00443564356,40.5230891 0.172039604,61.8208317 L0.172039604,61.8208317 C0.348514851,83.1182574 2.01029703,104.431842 2.3930297,123.978455 L2.3930297,123.978455 C2.77607921,143.525069 5.3379802,170.493782 7.90653465,188.967287 L7.90653465,188.967287 C9.7729901,202.38796 12.3871683,211.642931 12.3871683,211.642931 L12.3871683,211.642931 C12.3871683,211.642931 4.48158416,223.351129 9.89592079,223.053307 L9.89592079,223.053307 C15.3105743,222.755485 20.1200792,219.927129 19.7512871,215.454099 L19.7512871,215.454099 C19.395802,211.139802 15.5317228,185.510653 15.3869307,163.149307 L15.3869307,163.149307 C15.2405545,140.534178 25.8065743,130.762139 46.2691485,132.101069 L46.2691485,132.101069 C66.7320396,133.439366 71.2801584,157.873426 72.8136238,182.864792 L72.8136238,182.864792 C74.3474059,207.856475 71.5304554,213.766653 71.5304554,213.766653 L71.5304554,213.766653 C71.5304554,213.766653 77.814495,222.341069 78.646495,218.77101 L78.646495,218.77101 C79.1692673,216.528158 80.5040792,201.368396 86.6978218,176.003168 L86.6978218,176.003168 C96.8190099,134.553347 97.2210693,84.0025347 96.513901,52.0082376 L96.513901,52.0082376 C95.8067327,20.0136238 92.254099,9.8300198 88.448,4.09663366 L88.448,4.09663366 C86.8587723,1.7029703 83.5269703,0.161584158 80.1305347,0.146376238 L80.1305347,0.146376238" id="path-29"></path>
        <polygon id="path-31" points="0.0329188119 0.14789059 18.7973069 0.14789059 18.7973069 205.525323 0.0329188119 205.525323"></polygon>
        <polygon id="path-33" points="0 0.019960396 24.2167291 0.019960396 24.2167291 51.5637073 0 51.5637073"></polygon>
        <polygon id="path-35" points="0 -9.70621112e-06 41.2266707 -9.70621112e-06 41.2266707 11.5931248 0 11.5931248"></polygon>
        <polygon id="path-37" points="0.147550087 0.0776237624 8.19857418 0.0776237624 8.19857418 8.87128713 0.147550087 8.87128713"></polygon>
        <polygon id="path-39" points="0.322061192 0.161030596 0.483091787 0.161030596 0.483091787 0.322061192 0.322061192 0.322061192"></polygon>
        <polygon id="path-41" points="0 0.25456935 24.3247276 0.25456935 24.3247276 39.1600526 0 39.1600526"></polygon>
        <polygon id="path-43" points="0 0.131544034 9.26906918 0.131544034 9.26906918 24.1184316 0 24.1184316"></polygon>
    </defs>
    <g id="bg/section1_P" stroke="none" stroke-width="1" fill="none" fill-rule="evenodd">
        <rect fill="#FFFFFF" x="0" y="0" width="2000" height="900"></rect>
        <mask id="mask-2" fill="white">
            <use xlink:href="#path-1"></use>
        </mask>
        <use id="#" fill="#FFFFFF" xlink:href="#path-1"></use>
        <path d="M1758.98637,-60 C1707.42186,-8.68601221 1767.09864,88.3168005 1622,171.843565 C1476.90136,255.37033 1382.31121,372.843642 1461.61737,577.628213 C1514.48814,714.151261 1693.94902,798.441206 2000,830.498048 L2000,-60 C1839.39466,-58.2767794 1759.05678,-58.2767794 1758.98637,-60 Z" id="Path" fill="#2EE1B3" mask="url(#mask-2)"></path>
        <g id="Group" mask="url(#mask-2)">
            <g transform="translate(1402.000000, 200.000000)">
                <ellipse id="Oval" fill="#000000" opacity="0.100000001" cx="125.1" cy="274.984416" rx="57.0482353" ry="19.6155844"></ellipse>
                <g id="微側" fill="none">
                    <g id="微側/左手/舉高高" transform="translate(37.702970, 120.712871)">
                        <g id="Group-7" stroke-width="1" transform="translate(16.158416, -74.772277)">
                            <g id="Group-3" transform="translate(0.000000, 0.275327)">
                                <mask id="mask-4" fill="white">
                                    <use xlink:href="#path-3"></use>
                                </mask>
                                <g id="Clip-2"></g>
                                <path d="M13.5949624,17.8428832 C8.33967525,19.9555168 4.82759604,20.0733782 3.36383366,15.5201901 C2.71813069,13.5114772 3.03274455,12.2162693 1.13492277,8.92248713 C-1.52519604,4.30593267 0.855794059,-0.0983445545 4.50537822,0.0448633663 C8.15496238,0.188071287 12.1980515,2.99488317 12.6283089,6.20660594 C13.0588832,9.41832871 11.4401901,14.315596 11.4401901,14.315596 C11.4401901,14.315596 14.4320317,8.70514059 17.5072,11.8965861 C20.5826851,15.0880317 13.5949624,17.8428832 13.5949624,17.8428832" id="Fill-1" fill="#0BAF8A" mask="url(#mask-4)"></path>
                            </g>
                            <path d="M3.90346139,17.0941782 C4.21775842,24.5780594 3.74314455,38.6121188 6.71565941,51.9684752 C9.68849109,65.3248317 17.7388673,86.9682376 30.5993822,92.8774653 C44.645798,99.3313267 42.4279762,86.8693861 33.4930059,81.8872079 C25.4524515,77.4040396 14.1957386,60.5248317 12.0479366,41.1163564 C9.89981782,21.7075644 10.915897,19.7679208 10.915897,17.0941782 C10.915897,14.4204356 3.61704554,10.2677228 3.90346139,17.0941782" id="Fill-4" fill="#0BAF8A"></path>
                        </g>
                        <path d="M53.8780426,-20.4850424 C50.9052109,-7.12868594 43.1349139,13.2096903 30.2740822,19.118918 C16.2279832,25.5727794 17.3787159,12.2199081 26.3136862,7.2377299 C34.3542406,2.75456158 46.2890167,-13.7311956 48.4368187,-33.1396709 C50.5849375,-52.5484629 49.442399,-48.2271414 49.442399,-50.900884 C49.442399,-53.5746265 54.1846923,-54.6835374 57.2047753,-52.0097949 C56.8904782,-44.5259137 56.8511911,-33.8413988 53.8780426,-20.4850424 Z" id="長袖" fill-opacity="0" fill="#CBE8F4" transform="translate(38.424170, -16.349288) scale(-1, 1) translate(-38.424170, 16.349288) "></path>
                    </g>
                    <g id="body/微側" transform="translate(82.376238, 53.861386)" stroke-width="1">
                        <g id="Group-54">
                            <g id="Group-6" transform="translate(3.485149, 0.170455)">
                                <g id="Group-3">
                                    <mask id="mask-6" fill="white">
                                        <use xlink:href="#path-5"></use>
                                    </mask>
                                    <g id="Clip-2"></g>
                                    <path d="M10.1855683,3.83927129 C17.1764594,1.19594455 23.1623604,5.02168713 25.2566178,17.6616871 C27.3515089,30.3016871 30.082598,44.2299248 44.3907168,45.4535287 C63.4741228,47.0855287 68.9226772,32.6836277 70.1079446,10.8301624 C70.830004,-2.48120396 84.6416475,-1.63684752 88.4477465,4.09653861 C92.2538455,9.83024158 95.806796,20.0138455 96.5139644,52.0081426 C97.2211327,84.0024396 96.8190733,134.553251 86.6978851,176.003073 C80.5041426,201.368301 79.1693307,216.528063 78.6465584,218.770915 C77.8142416,222.340974 71.530202,216.618044 71.530202,216.618044 C71.530202,216.618044 72.8181228,207.222717 71.2846574,182.23135 C69.7508752,157.239667 65.8145584,133.439271 45.3516673,132.100974 C24.8890931,130.76236 15.852103,140.5344 15.9984792,163.149212 C16.1432713,185.510558 19.3955485,211.139707 19.7513505,215.454321 C20.1198257,219.927034 15.3106376,222.75539 9.89598416,223.053529 C4.48164752,223.351034 12.3869149,211.642836 12.3869149,211.642836 C12.3869149,211.642836 9.77273663,202.387865 7.90659802,188.967192 C5.33772673,170.49337 2.77614257,143.525291 2.39309307,123.97836 C2.01004356,104.431747 0.348578218,83.1181624 0.17210297,61.8207366 C-0.00437227723,40.5233109 2.37091485,6.79404356 10.1855683,3.83927129" id="Fill-1" fill="#00AF8C" mask="url(#mask-6)"></path>
                                </g>
                                <path d="M71.9451564,210.219089 C70.5612356,214.362297 64.2458297,213.070574 64.2458297,218.247921 C64.2458297,224.603248 68.3345426,224.633663 75.4974733,224.633663 C82.6607208,224.633663 81.9418297,223.806099 81.9418297,220.802535 C81.9418297,217.79897 81.3290772,215.335921 78.1024634,213.813228 C74.8755327,212.290851 71.9451564,210.219089 71.9451564,210.219089" id="Fill-4" fill="#0BAF8A"></path>
                            </g>
                            <g id="Group-43" transform="translate(3.485149, 0.170455)">
                                <g id="Group-9">
                                    <mask id="mask-8" fill="white">
                                        <use xlink:href="#path-7"></use>
                                    </mask>
                                    <g id="Clip-8"></g>
                                    <path d="M16.8156832,112.672063 C16.5935842,117.508182 12.1886733,121.231588 6.97710891,120.988261 C1.76554455,120.744935 -2.27944554,116.62739 -2.05734653,111.791271 C-1.83556436,106.954836 2.56934653,103.231747 7.78091089,103.475073 C12.9927921,103.718083 17.0374653,107.835945 16.8156832,112.672063" id="Fill-7" fill="#6EC386" mask="url(#mask-8)"></path>
                                </g>
                                <g id="Group-12">
                                    <mask id="mask-10" fill="white">
                                        <use xlink:href="#path-9"></use>
                                    </mask>
                                    <g id="Clip-11"></g>
                                    <path d="M30.588103,118.826139 C24.0398257,116.461307 27.8047366,122.824554 21.4009347,123.222495 C14.9974495,123.620752 21.2349149,140.126099 29.9785188,132.106455 C35.6523406,126.902812 36.1304396,120.827564 30.588103,118.826139" id="Fill-10" fill="#6EC386" mask="url(#mask-10)"></path>
                                </g>
                                <g id="Group-15">
                                    <mask id="mask-12" fill="white">
                                        <use xlink:href="#path-11"></use>
                                    </mask>
                                    <g id="Clip-14"></g>
                                    <path d="M3.78968713,140.12255 C7.89424158,136.516689 10.1874693,140.421323 9.86303366,142.52065 C9.53891485,144.619976 6.07626139,142.991461 6.41622178,145.637006 C7.00362772,150.210471 -1.4665505,144.740689 3.78968713,140.12255" id="Fill-13" fill="#6EC386" mask="url(#mask-12)"></path>
                                </g>
                                <g id="Group-18">
                                    <mask id="mask-14" fill="white">
                                        <use xlink:href="#path-13"></use>
                                    </mask>
                                    <g id="Clip-17"></g>
                                    <path d="M76.5749545,170.479588 C80.6795089,166.87341 82.9727366,170.778044 82.648301,172.87737 C82.3241822,174.976697 78.8615287,173.348182 79.2014891,175.994044 C79.7892119,180.567509 71.3187168,175.09741 76.5749545,170.479588" id="Fill-16" fill="#6EC386" mask="url(#mask-14)"></path>
                                </g>
                                <g id="Group-21">
                                    <mask id="mask-16" fill="white">
                                        <use xlink:href="#path-15"></use>
                                    </mask>
                                    <g id="Clip-20"></g>
                                    <path d="M13.8678178,159.301228 C13.7797386,161.221545 12.0308277,162.699564 9.9616,162.602931 C7.89237228,162.506297 6.28635248,160.871762 6.37474851,158.951446 C6.46282772,157.031446 8.21142178,155.553109 10.2806495,155.649743 C12.3498772,155.746376 13.955897,157.381228 13.8678178,159.301228" id="Fill-19" fill="#6EC386" mask="url(#mask-16)"></path>
                                </g>
                                <g id="Group-24">
                                    <mask id="mask-18" fill="white">
                                        <use xlink:href="#path-17"></use>
                                    </mask>
                                    <g id="Clip-23"></g>
                                    <path d="M52.8197069,121.802297 C52.7316277,123.722614 50.9827168,125.200634 48.9134891,125.104 C46.8445782,125.007683 45.2385584,123.372832 45.3266376,121.452515 C45.4147168,119.532515 47.1636277,118.054178 49.2328554,118.150812 C51.3017663,118.247446 52.9077861,119.882297 52.8197069,121.802297" id="Fill-22" fill="#6EC386" mask="url(#mask-18)"></path>
                                </g>
                                <g id="Group-27">
                                    <mask id="mask-20" fill="white">
                                        <use xlink:href="#path-19"></use>
                                    </mask>
                                    <g id="Clip-26"></g>
                                    <path d="M86.9099089,159.226646 C86.8218297,161.146962 85.0729188,162.624982 83.0036911,162.528349 C80.9347802,162.431715 79.3287604,160.79718 79.4168396,158.876863 C79.5049188,156.956863 81.2538297,155.478527 83.3230574,155.57516 C85.3919683,155.671794 86.9979881,157.306646 86.9099089,159.226646" id="Fill-25" fill="#6EC386" mask="url(#mask-20)"></path>
                                </g>
                                <g id="Group-30">
                                    <mask id="mask-22" fill="white">
                                        <use xlink:href="#path-21"></use>
                                    </mask>
                                    <g id="Clip-29"></g>
                                    <path d="M93.2137188,132.95981 C93.0733624,136.019453 90.2865109,138.375097 86.9892436,138.221117 C83.6919762,138.067453 81.1329267,135.462147 81.2729663,132.402503 C81.4136396,129.342543 84.2004911,126.986899 87.4977584,127.140879 C90.7950257,127.294859 93.3540752,129.900166 93.2137188,132.95981" id="Fill-28" fill="#6EC386" mask="url(#mask-22)"></path>
                                </g>
                                <g id="Group-33">
                                    <mask id="mask-24" fill="white">
                                        <use xlink:href="#path-23"></use>
                                    </mask>
                                    <g id="Clip-32"></g>
                                    <path d="M78.5850297,122.559113 C76.9821782,124.357133 74.0299406,124.285529 71.5215842,124.008935 C68.918495,123.744697 65.7571485,121.527192 67.1952475,118.633568 C67.7370297,117.543984 70.8632079,115.418677 72.0766733,114.33543 C76.5433663,110.347786 81.6430891,119.127509 78.5850297,122.559113" id="Fill-31" fill="#6EC386" mask="url(#mask-24)"></path>
                                </g>
                                <g id="Group-36">
                                    <mask id="mask-26" fill="white">
                                        <use xlink:href="#path-25"></use>
                                    </mask>
                                    <g id="Clip-35"></g>
                                    <path d="M69.3800238,147.626867 C66.4458455,147.699105 64.2226376,145.252214 62.5367762,143.008729 C60.766004,140.698075 60.3984792,136.445877 64.2353109,135.405402 C65.6800634,135.013481 70.1036673,135.92659 72.0635881,136.084055 C79.278796,136.663224 74.9793901,147.489046 69.3800238,147.626867" id="Fill-34" fill="#6EC386" mask="url(#mask-26)"></path>
                                </g>
                                <g id="Group-39">
                                    <mask id="mask-28" fill="white">
                                        <use xlink:href="#path-27"></use>
                                    </mask>
                                    <g id="Clip-38"></g>
                                    <path d="M88.0093782,94.0852594 C86.7208238,94.3903683 85.6442297,95.3586059 85.2751208,96.5445069 C85.0020119,97.4224475 85.099596,98.3650218 84.9281901,99.2654574 C84.753299,100.183319 84.3043485,101.032428 84.0217347,101.92621 C83.7391208,102.819675 83.639002,103.83322 84.1332594,104.649378 C84.696903,105.58118 85.8961109,106.024111 87.0354376,106.15623 C89.0273584,106.386883 91.2258535,105.771596 92.3601109,104.24415 C93.0067644,103.373497 93.2557941,102.302289 93.4129426,101.251992 C93.5925861,100.053101 93.6689426,98.8199921 93.3755564,97.6369426 C92.8087446,95.352903 90.6919921,93.4503287 88.0093782,94.0852594" id="Fill-37" fill="#6EC386" mask="url(#mask-28)"></path>
                                </g>
                                <g id="Group-42">
                                    <mask id="mask-30" fill="white">
                                        <use xlink:href="#path-29"></use>
                                    </mask>
                                    <g id="Clip-41"></g>
                                    <path d="M43.4538139,101.653164 C44.091596,103.010471 44.4844673,104.515739 44.2477941,105.980451 C44.0111208,107.445164 43.0590416,108.854432 41.612705,109.408887 C40.155596,109.967145 38.4808238,109.596768 37.0316356,109.005244 C35.5827644,108.413085 34.2172198,107.603263 32.6862891,107.246194 C31.065695,106.867897 29.3700119,107.022511 27.705695,106.923976 C26.041695,106.825442 24.2639525,106.396768 23.205101,105.168729 C19.0359129,100.330392 24.601695,95.1742733 29.8148436,95.5265901 C34.3540911,95.8336 41.4736158,97.4396198 43.4538139,101.653164" id="Fill-40" fill="#6EC386" mask="url(#mask-30)"></path>
                                </g>
                            </g>
                            <g id="Group-53" transform="translate(0.000000, 0.170455)">
                                <path d="M50.477497,45.578297 L50.4904871,45.578297 C50.490804,45.578297 50.4914376,45.578297 50.4920713,45.578297 C50.487002,45.578297 50.4825663,45.578297 50.477497,45.578297" id="Fill-44" fill="#009178"></path>
                                <path d="M47.8760238,45.4536238 C33.567905,44.2300198 30.836499,30.3017822 28.7419248,17.6617822 C27.0031525,7.16926733 22.5824,2.75516832 17.1319446,3.06883168 C24.4079842,4.07128713 24.0987564,14.5717228 26.2275485,25.4007129 C29.3496079,41.2806337 34.324499,45.573703 50.4667564,45.5781386 C49.6325386,45.5711683 48.7691723,45.5299802 47.8760238,45.4536238" id="Fill-46" fill="#009178"></path>
                                <g id="Group-50" transform="translate(81.425743, 0.000000)">
                                    <mask id="mask-32" fill="white">
                                        <use xlink:href="#path-31"></use>
                                    </mask>
                                    <g id="Clip-49"></g>
                                    <path d="M8.75719604,176.002947 C18.8783842,134.553125 19.2804436,84.0023129 18.5732752,52.0080158 C17.8661069,20.0137188 14.3134733,9.83011485 10.5070574,4.09641188 C8.58072079,1.1945505 4.09121584,-0.452974257 0.0329188119,0.351461386 C8.65549307,3.0936396 11.6061465,20.6945901 12.0294337,51.7925703 C12.4653941,83.8030257 9.71022574,159.961125 2.6917703,205.525323 C3.87038416,198.323422 5.73525545,188.378392 8.75719604,176.002947" id="Fill-48" fill="#009178" mask="url(#mask-32)"></path>
                                </g>
                                <path d="M21.9381861,215.263461 L16.3118891,211.642709 C16.3118891,211.642709 3.27616634,208.517798 0.583730693,215.661719 C-2.10870495,222.80564 4.86159208,224.920174 14.3665426,222.955818 C23.8714931,220.991461 21.9381861,215.263461 21.9381861,215.263461" id="Fill-51" fill="#0BAF8A"></path>
                            </g>
                        </g>
                    </g>
                    <g id="微側/右手/自然下垂" transform="translate(178.376238, 120.396040)">
                        <g id="Group-12" stroke-width="1" transform="translate(-2.534653, 3.801980)">
                            <g id="Group-3" transform="translate(0.000000, 0.296871)">
                                <mask id="mask-34" fill="white">
                                    <use xlink:href="#path-33"></use>
                                </mask>
                                <g id="Clip-2"></g>
                                <path d="M23.9131881,47.2212277 C25.7603168,50.6487129 18.6461782,53.2502178 16.8763564,50.2384158 C15.1065347,47.2266139 11.2627327,42.0695446 8.43374257,37.4403168 C4.99326733,31.8108515 2.32015842,25.0249505 0.70590099,20.0909307 C-0.907722772,15.1569109 0.288316832,5.9320396 3.84982178,2.15287129 C5.83508911,0.0462574257 8.82724752,-1.79041584 9.69188119,3.28934653 C10.5568317,8.36910891 12.2832475,16.9194455 15.678099,28.7483564 C18.106297,37.208396 22.9943762,45.5160396 23.9131881,47.2212277" id="Fill-1" fill="#0BAF8A" mask="url(#mask-34)"></path>
                            </g>
                            <path d="M19.4628436,50.4094099 C19.4599921,50.6872713 19.6827248,50.9147564 19.9605861,50.9176079 C20.2384475,50.9204594 20.4659327,50.6977267 20.4687842,50.4198653 C20.4716356,50.142004 20.2485861,49.9145188 19.9710416,49.9116673 C19.6931802,49.9088158 19.465695,50.1315485 19.4628436,50.4094099" id="Fill-4" fill="#ED1C24"></path>
                            <path d="M25.6868752,50.2867327 C23.2637465,46.1859802 18.7026376,45.3311683 17.2071921,47.8550495 C15.7117465,50.3789307 19.7833505,55.1884356 22.5949149,59.0078416 C25.406796,62.8269307 34.4833901,73.6125149 37.4172515,76.3271287 C40.3511129,79.0414257 47.8647762,76.2222574 43.6109941,72.1503366 C39.356895,68.0784158 37.0031525,65.9638812 33.8069545,61.7598416 C30.6110733,57.555802 25.6868752,50.2867327 25.6868752,50.2867327" id="Fill-6" fill="#0BAF8A"></path>
                            <path d="M40.5513505,76.4197069 C40.4854495,76.6896475 40.6508356,76.9618059 40.9210931,77.0273901 C41.1910337,77.0932911 41.4628752,76.927905 41.5287762,76.6579644 C41.5943604,76.3880238 41.4289743,76.1158653 41.1590337,76.0499644 C40.8890931,75.9843802 40.6172515,76.1497663 40.5513505,76.4197069" id="Fill-8" fill="#ED1C24"></path>
                            <path d="M37.2705584,80.463398 C38.5125386,74.936903 40.6001426,71.4530218 44.9876277,73.3562297 C49.3751129,75.2594376 46.3614099,75.4767842 51.6854495,75.2641901 C57.0091723,75.0512792 59.272301,80.1525861 57.0836277,83.0763089 C54.8949545,86.0003485 50.2898059,87.7372198 47.4009347,86.2693386 C44.5120634,84.8017743 41.3972911,80.6902495 41.3972911,80.6902495 C41.3972911,80.6902495 44.3203802,86.3371406 39.9474693,87.0585663 C35.5742416,87.7803089 37.2705584,80.463398 37.2705584,80.463398" id="Fill-10" fill="#0BAF8A"></path>
                        </g>
                        <path d="M11.5903514,23.2088991 C12.7714145,28.6404983 20.6046987,52.0546417 32.3165837,68.0068624 L23.1176953,71.2853517 C15.0943661,59.4211716 -3.18944845,30.2989182 -4.38605182,9.67147453 C-5.14234659,3.59436136 2.8965229,0.85954764 6.97391003,3.59436136 C11.0512972,6.32949736 9.24506063,13.5213549 11.5903514,23.2088991" id="長袖" fill-opacity="0" fill="#CBE8F4" transform="translate(13.940346, 36.909114) rotate(-3.000000) translate(-13.940346, -36.909114) "></path>
                        <path d="M14.1054119,17.042887 C7.78747126,7.26894643 -1.24793468,1.72977812 -1.24793468,1.72977812 C-1.24793468,1.72977812 -5.90979607,7.14126327 -6.1021129,12.5096593 C-6.25926141,16.880986 -4.88928122,20.7254217 -4.06963765,22.3092633 C-2.21997428,25.8834415 4.25764948,29.5425306 4.25764948,29.5425306 C7.34992671,22.1489464 14.1054119,17.042887 14.1054119,17.042887 Z" id="短袖" fill-opacity="0" fill="#CBE8F4" transform="translate(3.995436, 15.636154) rotate(29.000000) translate(-3.995436, -15.636154) "></path>
                    </g>
                    <g id="五官/嘴/微笑" transform="translate(111.841584, 103.287129)" stroke-width="1">
                        <g id="Group-3" transform="translate(19.871287, 5.683168) scale(-1, 1) translate(-19.871287, -5.683168) translate(-1.128713, -0.316832)">
                            <mask id="mask-36" fill="white">
                                <use xlink:href="#path-35"></use>
                            </mask>
                            <g id="Clip-2"></g>
                            <path d="M1.74102178,0.303936634 C4.26236832,2.7996198 7.33595248,4.67336238 10.6218139,5.96540198 C13.9076752,7.26409505 17.4165861,7.99249109 20.9207446,8.12049109 C24.4245861,8.23771881 27.9252594,7.70607525 31.1277941,6.46409505 L32.3121109,5.95938218 L33.4618931,5.38243168 L34.5692198,4.72785743 C34.9224871,4.48674851 35.2855762,4.25419406 35.6372594,4.00611485 C37.0284673,2.99066931 38.284705,1.77942178 39.4135762,0.412293069 L39.4224475,0.401837624 C39.7807842,-0.0322217822 40.423002,-0.093370297 40.8567446,0.264966337 C41.2353584,0.577362376 41.3297743,1.10647129 41.1102099,1.52437228 C40.1929822,3.27011485 38.937695,4.86472871 37.4498535,6.21253069 C37.0737743,6.54330297 36.6824871,6.8585505 36.2959525,7.18235248 C35.8942099,7.48270891 35.4756752,7.76152079 35.0634772,8.05142178 L33.7701703,8.82765941 C33.3253386,9.05894653 32.874804,9.28167921 32.423002,9.50282772 C28.7575762,11.1791842 24.705299,11.7450455 20.7794376,11.5593822 C16.8418535,11.3702337 12.9714376,10.4096 9.41436832,8.77126337 C5.87630891,7.11930297 2.59583366,4.76080792 0.208506931,1.63272871 C-0.132087129,1.1866297 -0.0465425743,0.548847525 0.399873267,0.208570297 C0.807952475,-0.103192079 1.37666535,-0.0578851485 1.7312,0.29379802 L1.74102178,0.303936634 Z" id="Fill-1" fill="#353535" mask="url(#mask-36)"></path>
                        </g>
                    </g>
                    <g id="五官/眼/微側/標準" transform="translate(94.732673, 73.504950)" stroke-width="1">
                        <g id="Group-6">
                            <g id="Group-3" transform="translate(64.316832, 0.239303)">
                                <mask id="mask-38" fill="white">
                                    <use xlink:href="#path-37"></use>
                                </mask>
                                <g id="Clip-2"></g>
                                <path d="M4.54488713,0.0782574257 C7.83011485,0.149544554 8.12318416,2.38479208 8.19637228,4.18661386 C8.26987723,5.98843564 6.49752079,9.16308911 3.70940198,8.84974257 C0.921283168,8.53607921 -0.107152475,6.47255446 0.199857426,4.53607921 C0.506550495,2.59960396 2.22187723,0.0278811881 4.54488713,0.0782574257" id="Fill-1" fill="#353535" mask="url(#mask-38)"></path>
                            </g>
                            <path d="M4.08975842,0.932594059 C1.22908515,0.335049505 0.526352475,2.21322772 0.101481188,3.75936634 C-0.323706931,5.30582178 0.575144554,8.41235644 3.05340198,8.7000396 C5.53197624,8.9880396 6.83732277,7.40641584 6.95993663,5.66669307 C7.0825505,3.92728713 6.11241188,1.35493069 4.08975842,0.932594059" id="Fill-4" fill="#353535"></path>
                        </g>
                    </g>
                </g>
            </g>
        </g>
        <path d="M275.552344,-31.5972712 C388,34 388,128 395,209 C402,290 554,262 600,440 C646,618 435.53899,781.028591 211.098933,729.410205 C61.4722287,694.997948 -18.8940824,648.750327 -30,590.667343 L-30,-44.894023 C98.7364585,-79.7610359 200.58724,-75.3287853 275.552344,-31.5972712 Z" id="Path-2" fill="#FFB115" mask="url(#mask-2)"></path>
        <path d="M407.221624,73.4824393 C396.844197,85.0888031 394.396555,125.447748 422.283171,141.555114 C450.169786,157.662479 443.373127,118.622668 441.213969,100.047834 C439.054811,81.4730008 417.59905,61.8760755 407.221624,73.4824393 Z" id="Path-8" fill="#FFB115" mask="url(#mask-2)"></path>
        <g id="Group-2" mask="url(#mask-2)">
            <g transform="translate(379.642165, 165.000000)">
                <path d="M150.283858,149.539108 C150.283858,164.661473 116.641706,176.920655 75.1420932,176.920655 C33.6421523,176.920655 6.11066753e-13,164.661473 6.11066753e-13,149.539108 C6.11066753e-13,134.416743 33.6421523,122.157561 75.1420932,122.157561 C116.641706,122.157561 150.283858,134.416743 150.283858,149.539108" id="Fill-1" fill="#000000" opacity="0.100000001"></path>
                <g id="Group-47" stroke-width="1" fill="none" transform="translate(110.357835, 116.500000) scale(-1, 1) translate(-110.357835, -116.500000) translate(10.357835, 0.000000)">
                    <path d="M97.1294364,24.2530757 C110.333623,23.7361675 108.84087,33.0559742 112.041836,51.3918841 C113.427021,59.3261836 119.383543,68.1435749 130.608019,68.1435749 C146.701095,68.1435749 152.879517,61.2556522 153.027021,38.4765862 C153.158422,18.0936554 175.734267,18.6762641 177.51913,38.4765862 C181.983221,87.9867311 186.69562,112.196715 184.165829,137.751948 C181.983221,159.806377 172.158422,164.611852 161.456973,178.669179 C151.873076,191.258229 149.629919,200.104928 143.74876,213.607987 C137.057617,228.97256 130.603833,232.964831 126.365507,229.664348 C122.127182,226.363543 136.700129,203.174171 139.237327,185.893333 C141.210596,172.45533 141.316232,161.399291 115.927504,161.094622 C89.111401,160.77256 86.6453784,164.968052 65.6891787,175.909436 C46.9458615,185.695266 28.5922383,195.817971 14.5207407,200.285282 C12.7445733,200.849211 6.38322061,190.602512 16.9027053,186.156135 C29.3461836,180.896876 45.5258937,171.185765 55.617037,164.959356 C69.927182,156.129726 74.7133333,150.864348 81.1674396,139.838583 C91.4733977,122.232464 85.4666345,77.0930113 86.4985185,51.1670853 C86.9970692,38.6395491 88.3526248,24.596715 97.1294364,24.2530757" id="Fill-1" fill="#00B791"></path>
                    <g id="Group-5" transform="translate(0.000000, 231.653462)">
                        <mask id="mask-40" fill="white">
                            <use xlink:href="#path-39"></use>
                        </mask>
                        <g id="Clip-4"></g>
                        <path d="" id="Fill-3" fill="#229D83" mask="url(#mask-40)"></path>
                    </g>
                    <path d="M126.334138,231.952496 C116.667794,231.638808 120.638486,219.733816 122.307729,213.130596 C123.976973,206.527697 126.525765,198.02657 126.727697,192.589211 C126.929308,187.152174 139.119002,191.859742 141.500644,195.724477 C143.881643,199.589533 140.378905,209.83752 136.436876,219.655556 C132.495169,229.473591 135.925121,232.263929 126.334138,231.952496" id="Fill-6" fill="#20CEAC"></path>
                    <g id="Group-10" transform="translate(0.322061, 161.122061)">
                        <mask id="mask-42" fill="white">
                            <use xlink:href="#path-41"></use>
                        </mask>
                        <g id="Clip-9"></g>
                        <path d="M8.45645733,0.731497585 C19.0097585,5.76950081 24.7134622,19.1875362 24.3041224,27.9147504 C23.8944605,36.6422866 12.7012238,43.5218357 10.3723994,35.8226409 C9.59719807,33.2596779 1.78592593,15.0889855 0.0790016103,5.44872786 C-0.800547504,0.479967794 5.89768116,-0.489758454 8.45645733,0.731497585" id="Fill-8" fill="#00B791" mask="url(#mask-42)"></path>
                    </g>
                    <path d="M163.779098,40.7808696 C167.134654,40.6813527 167.550757,42.9467311 167.720161,44.7811916 C167.889565,46.6156522 166.247375,49.9476973 163.386506,49.7741063 C160.525314,49.6005153 159.367826,47.5489855 159.57942,45.557037 C159.791014,43.5650886 161.406151,40.851401 163.779098,40.7808696" id="Fill-11" fill="#221E1F"></path>
                    <path d="M99.3995813,41.9041546 C96.1313043,41.137649 95.271723,43.274525 94.74,45.0384541 C94.208599,46.8023833 95.1532045,50.3952979 97.9918519,50.7952979 C100.829855,51.1952979 102.373172,49.4155878 102.562866,47.4213849 C102.75256,45.427182 101.710692,42.4461836 99.3995813,41.9041546" id="Fill-13" fill="#221E1F"></path>
                    <path d="M130.548631,84.8615781 C137.235266,84.5913688 141.163768,82.9250242 143.333172,80.6796135 C148.254589,75.5865378 147.133172,72.3742995 144.10161,71.5491787 C142.100966,71.0045733 136.853945,71.8264734 134.828824,72.2705958 C130.49839,73.2203543 125.94219,73.1237359 121.6562,71.9910467 C120.084541,71.5755878 118.445572,71.0197101 116.871337,71.4258293 C115.384702,71.8097262 114.211111,72.7102093 113.726409,74.1668921 C112.662641,77.3620612 119.56409,85.3057005 130.548631,84.8615781" id="Fill-15" fill="#343535"></path>
                    <path d="M143.044831,71.4185185 C140.64161,71.2813205 136.563994,71.8900161 134.828728,72.2706924 C130.498293,73.2204509 125.942093,73.1235105 121.656103,71.9908213 C120.084122,71.5753623 118.445475,71.0194847 116.87124,71.4259259 C116.652238,71.4826087 116.44161,71.5644122 116.236457,71.658132 C115.342415,73.1502415 116.565604,76.9972625 117.655781,76.9454106 C119.914396,76.8378422 120.344348,74.1547504 121.773011,72.4024155 C122.626151,73.720934 121.220676,76.9225443 122.775266,77.05781 C124.325346,77.1924316 124.698937,74.8681159 126.080902,74.152496 C126.35723,74.0095008 126.680902,73.8729469 126.969147,73.9898551 C127.188792,74.079066 127.326957,74.2932367 127.451272,74.494847 C128.076071,75.5086957 128.391047,77.6246377 129.325668,77.537037 C130.740161,77.4043478 131.659646,73.6726248 133.545314,74.2027375 C134.640322,74.5109501 135.275427,75.6072464 135.974944,76.5048309 C136.674138,77.4024155 137.791691,78.6059581 138.620032,77.8259259 C139.178808,77.2993559 139.939517,75.1502415 140.534364,74.363124 C140.753366,74.0729469 141.258035,73.9202899 141.448696,74.2297907 C141.536618,74.3721417 141.516006,74.552818 141.507311,74.7199678 C141.470918,75.4169082 141.463833,77.7454106 142.157552,77.6719807 C143.617456,77.5180354 144.18525,71.8362319 144.171648,71.8619968 C143.813269,71.5534622 143.444187,71.5827697 143.044831,71.4185185" id="Fill-17" fill="#FFFFFF"></path>
                    <path d="M87.8836715,84.3645089 C77.3500161,91.0836715 60.2421256,123.800902 65.7326248,131.930048 C70.7477617,139.355491 85.0453462,134.132303 92.3258615,132.833752 C100.234074,131.423124 107.020548,130.173205 109.611852,131.987375 C112.202834,133.801224 113.42087,138.550338 120.184155,138.872399 C126.94744,139.194461 131.778357,134.685604 130.168052,131.464992 C128.557746,128.24438 125.115556,123.832142 121.36161,123.864348 C121.36161,123.864348 130.007021,126.065958 127.752593,123.048889 C125.498164,120.03182 117.121031,119.577713 111.969662,120.746151 C106.818293,121.914911 109.094944,122.584477 102.689791,122.874332 C97.7973591,123.095588 80.8926892,124.520386 78.3161997,123.00058 C75.7397101,121.481095 88.2975201,104.733913 88.2975201,104.733913 L87.8836715,84.3645089 Z" id="Fill-19" fill="#20CEAC"></path>
                    <path d="M181.666699,84.0424477 C193.131111,101.835362 205.537874,141.752915 196.757842,143.533269 C187.978132,145.313623 183.264444,145.099775 166.051884,139.135523 C152.345926,134.386409 141.989082,132.995427 133.871852,133.397359 C131.634171,140.00058 126.859291,142.357424 121.347858,142.547118 C115.836425,142.737134 110.617746,136.868213 110.844477,133.55839 C111.159452,128.959678 121.553011,129.629887 121.553011,129.629887 C121.553011,129.629887 113.259936,128.727472 114.546248,125.637617 C116.161707,121.756457 127.142061,123.792206 131.617424,126.419259 C133.770403,126.540032 134.141417,124.701707 147.720483,125.66789 C166.294396,126.989308 186.759775,133.593172 188.40744,130.606055 C190.003253,127.712657 173.247053,109.862415 173.527568,98.1194203 C173.80744,86.3764251 181.666699,84.0424477 181.666699,84.0424477" id="Fill-21" fill="#20CEAC"></path>
                    <path d="M96.9620934,8.4821256 C96.1102415,9.36553945 94.9453462,13.5674718 93.4522705,17.0035427 C97.2097585,13.5636071 100.935684,12.7339775 105.94599,11.6975845 C108.142126,7.33172303 111.072238,4.0331723 114.950499,3.65925926 C116.527633,3.50724638 118.356296,3.38679549 120.346312,3.29243156 L123.348889,0.327214171 C112.378519,2.34202899 99.307343,6.04991948 96.9620934,8.4821256" id="Fill-23" fill="#A1A1B7"></path>
                    <path d="M87.5874074,38.30219 C88.8118841,30.5897907 91.3761353,24.4783575 97.1294364,24.2529147 C98.8927214,24.1839936 100.391594,24.2922061 101.676618,24.5717552 C103.681127,15.5115298 107.622512,4.36531401 114.95037,3.65935588 C127.407375,2.45871176 154.469533,5.42779388 154.469533,5.42779388 C154.469533,5.42779388 143.948116,-0.820515298 132.873076,0.0909178744 C121.798035,1.00235105 100.026055,5.30444444 96.9619646,8.48190016 C93.8981965,11.6596779 84.49562,38.3218357 84.49562,38.3218357 C85.4795169,38.3752979 86.5239614,38.3620934 87.5874074,38.30219" id="Fill-25" fill="#A1A1B7"></path>
                    <path d="M80.9005475,64.3199678 C82.3707568,64.9570048 84.4953945,65.2974235 86.4071498,65.02657 C86.3491787,60.6800322 86.3604509,56.5805153 86.4986151,52.852657 C86.7762319,45.3492754 87.3205153,37.3412238 89.2638325,31.6529791 C88.8754267,31.0214171 88.4219646,30.4594203 87.8789694,30.0033816 C87.0036071,29.2681159 83.5459581,27.14219 79.8902415,31.4877617 C76.0081159,36.1028986 76.0734944,40.8719807 75.7784863,49.526087 C75.6763929,52.5148148 75.4171337,61.9438003 80.9005475,64.3199678" id="Fill-27" fill="#343535"></path>
                    <path d="M187.449984,58.804058 C188.119227,54.1428663 187.445475,49.419839 186.554976,44.7969726 C185.894106,41.3663768 185.033559,37.8001932 182.559163,35.1341707 C181.889919,34.4130757 181.078325,33.7544605 180.079936,33.47781 C179.342093,33.2733011 178.015201,30.5164573 177.242254,30.5124568 C170.992657,30.4784541 168.940805,36.8845733 168.216812,45.3013205 C167.746602,50.7708857 168.468663,63.4333655 174.856103,66.377971 C177.010048,67.3712077 181.727279,68.1976167 183.973011,67.3605797 C187.425829,66.0739452 186.971401,62.1386795 187.449984,58.804058" id="Fill-29" fill="#A1A1B7"></path>
                    <path d="M174.068406,35.590628 C173.967923,37.7294364 182.907053,36.0473108 182.907053,36.0473108 L182.304799,34.8708213 C181.686763,34.2563285 180.95504,33.7204187 180.08,33.4775845 C179.342158,33.2730757 178.015266,30.5165539 177.241997,30.5123671 C175.236844,30.5017391 173.663897,31.1548792 172.428148,32.3239614 C172.428148,32.3239614 174.161481,33.6047987 174.068406,35.590628" id="Fill-31" fill="#9F9FA0"></path>
                    <path d="M183.973043,67.3606763 C186.019098,66.5980354 186.69285,64.9056039 187.002029,62.959066 L176.859678,61.5400644 L169.840354,59.901095 C170.87868,62.827343 172.472882,65.2791948 174.855813,66.3780676 C177.010081,67.3713043 181.727311,68.1977134 183.973043,67.3606763" id="Fill-33" fill="#A1A1B7"></path>
                    <path d="M180.614976,67.5523671 C177.090016,66.8328824 175.176651,63.1604187 174.179549,59.8113043 C172.102899,52.8399678 171.813366,45.37781 173.343156,38.2757166 C173.837842,35.9787762 174.561192,33.6425443 176.134783,31.8573591 C177.708374,30.0721739 180.319324,28.9668599 182.619163,29.7108213 C184.961514,30.4686312 186.657488,32.6361031 187.707085,34.798744 C190.225926,39.9887601 190.904831,44.0473752 191.247826,50.2676651 C191.432367,53.6154911 191.270692,58.1810306 189.852335,61.2399678 C188.1657,64.8760386 184.645894,68.3749114 180.614976,67.5523671" id="Fill-35" fill="#343535"></path>
                    <path d="M180.398583,18.2362963 C178.212432,11.0475684 172.92161,1.91584541 159.505829,0.89394525 C144.112915,-0.278035427 131.566377,-0.422962963 115.747697,1.23951691 C88.9180676,4.05884058 87.3818357,17.9280837 83.4240258,35.3052174 C83.1873108,36.3441868 85.5315942,38.3342029 87.3805475,39.7142351 C87.9525282,35.4939452 88.8758776,31.6575523 90.4340097,28.8614171 C92.0153301,19.3931401 93.8977778,10.7081159 105.665894,9.01826087 C109.874267,8.41375201 147.454622,7.2163285 158.524831,9.74772947 C166.700354,11.6172947 171.280064,15.5999034 172.356715,31.2092432 C172.570242,34.3048953 170.620483,41.8063446 173.639807,43.9180998 C175.498744,45.2185829 182.716135,41.3393559 184.874911,40.5048953 C183.586023,31.6997424 183.007279,26.8124638 180.398583,18.2362963" id="Fill-37" fill="#343535"></path>
                    <path d="M175.864573,35.3613527 C175.890982,35.3568438 175.900644,35.2885668 175.900644,35.2885668 C175.900644,35.2885668 175.887762,35.3140097 175.864573,35.3613527" id="Fill-39" fill="#454949"></path>
                    <path d="M175.163221,49.5847343 C173.809275,42.1444767 175.256618,35.9811916 176.78351,34.1596135 C175.86467,15.2813527 169.840515,7.06879227 162.077874,5.78151369 C152.740676,4.23304348 127.017649,3.70904992 106.906216,5.08489533 C102.786087,5.36669887 99.428277,5.85687601 96.6611272,7.06718196 C87.8131401,12.798905 86.3451852,20.6104992 83.8959098,31.2472142 C83.8923671,31.2481804 82.7922061,32.588277 82.7889855,32.5892432 C81.6849597,34.2488245 80.1484058,38.3873108 79.6614493,45.2916586 C78.9065378,55.9950403 80.238905,64.9914976 84.4959098,65.1203221 C85.6485668,65.0056683 85.8926892,65.1132367 86.539066,64.8433494 C86.5104026,61.5164573 86.3828663,54.0761997 86.4984863,51.1670209 C86.8253784,42.9541385 87.5207085,34.0900483 90.433752,28.8613849 C92.0153945,19.39343 94.8640258,10.7080837 106.632142,9.01822866 C110.840837,8.41371981 147.454686,7.2162963 158.524895,9.74769726 C166.597681,11.593752 171.158068,15.4874718 172.308148,30.6472142 L172.268535,35.1373913 C170.220225,38.9393237 170.923607,52.8401288 173.134879,59.8111433 C174.197359,63.1605797 176.234396,66.8327214 179.988663,67.5522061 C181.725862,67.8852174 183.370306,67.5029308 184.835684,66.6980998 L184.835684,66.6980998 C184.841481,66.6948792 184.846634,66.6910145 184.852432,66.6877939 C177.776747,66.27781 176.605733,57.5119485 175.163221,49.5847343" id="Fill-41" fill="#454949"></path>
                    <path d="M86.5328502,64.2083092 C86.494847,60.3625765 86.3750403,56.1918841 86.4987118,52.8527536 C86.789533,44.9867311 87.37343,36.5664412 89.5550725,30.8459903 C86.0468599,30.7187762 83.3879227,37.533591 83.0494364,46.6434138 C82.757971,54.4675684 83.2761675,61.9989694 86.5328502,64.2083092" id="Fill-43" fill="#9090A3"></path>
                    <path d="M86.5061192,54.14657 C86.5074074,54.1130757 86.5086957,54.0795813 86.510306,54.046409 C85.4024155,53.083124 84.1376812,51.6051852 83.0236715,49.3607407 C82.8085346,56.2290177 83.2913043,62.246409 86.3982287,64.2084058 C86.3599034,60.6325604 86.3824477,57.251562 86.5061192,54.14657" id="Fill-45" fill="#A1A1B7"></path>
                </g>
            </g>
        </g>
        <g id="Group-138" mask="url(#mask-2)">
            <g transform="translate(1415.000000, 79.500000) rotate(-11.000000) translate(-1415.000000, -79.500000) translate(1356.000000, -9.000000)">
                <path d="M91.9899373,83.0968826 C91.8942805,81.0862186 91.7050615,77.7658945 94.3918308,77.9079142 C94.9853219,80.2550881 93.5979491,82.9240802 95.3442095,85.0270921 C96.038245,85.9099933 103.726399,87.2952107 101.163914,89.5717245 C100.376316,90.2713292 97.7614639,88.9490763 96.7958189,88.6447482 C93.6244817,87.6527087 92.0925763,87.1384992 92.0150734,83.6971435 C92.0087893,83.5166455 92.0011089,83.3151593 91.9899373,83.0968826" id="Fill-1" fill="#EEC471"></path>
                <path d="M87.0976154,95.6870395 C87.5081716,95.5156364 87.9808698,95.2378933 88.5198994,94.8356206 C92.1415917,92.1344466 94.4680769,86.907 96.1787278,82.8339012 C97.6882899,79.2442292 99.6991775,74.5981542 99.352858,70.5971146 C98.9101834,65.4774071 95.272432,68.1044229 93.2531657,70.7986008 C89.8730592,75.3110514 87.2526213,80.4587431 85.6669527,85.8848775 C84.8709763,88.6119368 83.0360414,97.376585 87.0976154,95.6870395" id="Fill-3" fill="#7E776E"></path>
                <path d="M23.5254053,159.805976 C27.1708372,160.579039 30.7604112,161.58577 34.3485887,162.592501 C38.0191568,163.62232 41.6890266,164.651438 45.3595946,165.681256 C47.3572159,166.24164 49.5266005,166.923055 50.6668017,168.660173 C52.0437011,170.757588 51.1045887,173.99396 48.819997,175.024478 C47.9639733,175.41066 46.7420798,175.922071 47.0101982,176.822462 C34.3150739,173.812762 21.6206479,170.802363 8.92692007,167.791964 C6.45729877,167.206395 3.84174847,166.539671 2.08710942,164.702509 C0.332470366,162.865347 -0.00756513701,159.445679 2.07384315,157.990501 C9.26276622,157.701565 16.4866005,158.313019 23.5254053,159.805976" id="Fill-1" fill="#000000" opacity="0.100000001"></path>
                <path d="M9.64478935,57.5797791 C7.02644615,64.0343324 5.89043432,72.0357119 4.88149941,78.6252889 C3.58559408,87.075115 4.07923905,97.2319767 6.18229231,105.564269 C7.75120355,111.77466 13.5709077,115.383921 16.428742,120.861127 C19.6405763,127.018348 19.524671,133.144787 18.1191444,139.775641 C17.2093574,144.082408 16.7820438,148.650127 14.9212746,152.688245 C12.7553811,157.384692 9.53865917,155.902929 5.93093136,158.636285 C2.95160592,160.894609 5.00159408,162.941653 7.90411479,163.343226 C11.451097,163.837147 13.500387,161.488574 15.9001858,159.153293 C17.248458,157.841534 18.0346592,157.363704 18.8048012,155.645475 C19.9359254,153.129696 20.8094047,150.280906 21.6060793,147.639198 C22.5605527,144.488178 23.3523396,141.353949 24.6447538,138.36174 C25.6990734,135.920819 26.7352391,133.436522 28.6553574,131.568577 C34.6586947,125.738072 46.5927538,124.792206 50.3170852,133.412036 C52.142245,137.641846 50.1760438,143.456961 49.8178544,147.881261 C49.2103988,155.382423 50.2584343,161.816688 43.9346118,166.378111 C42.0026237,167.767526 36.4496414,169.121261 40.5035349,171.398475 C44.9219018,173.86668 51.7498426,166.859439 52.974529,163.285858 C55.229097,156.703277 54.7954994,149.237095 57.3593811,142.814724 C59.368174,137.783166 65.3903633,136.689684 69.5182686,133.898961 C75.456671,129.88253 81.5542686,125.70519 87.1868485,121.266898 C96.730884,113.736352 103.014908,103.693526 110.620671,94.5140123 C114.343606,90.020451 124.48602,70.7988107 109.59428,75.6722573 C103.583961,77.6402455 96.6017124,87.0856091 92.498245,92.0136249 C89.1977361,95.9838818 84.7598189,99.7071783 80.1745763,102.008178 C62.399168,110.936534 66.3776533,81.3047751 63.0177953,72.3680241 C58.3285172,59.8933719 48.9171444,71.0079925 44.5413692,77.41987 C41.4698781,81.9232257 38.5589787,85.4758186 34.6091207,89.3145498 C33.3634876,90.528364 30.5426592,94.0179925 28.6113692,94.2656526 C27.2917243,94.4363561 26.2981503,93.7668344 25.3583396,92.882534 C22.6387538,90.3205814 21.7764462,85.2015735 21.0174757,81.8826486 C19.9142805,77.0609727 19.7494994,71.7439767 19.9994639,66.8250557 C20.1719254,63.4599569 22.344103,52.5720083 18.975168,50.3773482 C15.9337006,48.3974668 12.2826828,52.2431941 11.028671,54.5994628 C10.5245527,55.5439292 10.0658189,56.5436644 9.64478935,57.5797791" id="Fill-5" fill="#F1B755"></path>
                <path d="M14.6970047,60.6784684 C17.1645314,61.7033893 19.215916,58.37467 18.2488746,55.9582352 C16.0522592,50.4621403 10.3275136,57.3847292 13.9156911,60.2090336 C14.1789219,60.4175158 14.440058,60.5721285 14.6970047,60.6784684" id="Fill-7" fill="#343535"></path>
                <path d="M53.9148485,75.6051652 C53.9246734,77.9502403 55.3811704,80.1267107 58.0106852,79.2025328 C61.2092533,78.0789676 62.2370402,70.7666988 57.8305432,70.9793787 C55.1388864,71.1137028 53.9058213,73.4328925 53.9148485,75.6051652" id="Fill-9" fill="#343535"></path>
                <path d="M109.466715,79.655247 C106.929366,80.3135751 102.120691,86.705164 107.850324,87.9294723 C113.398419,88.8445553 115.408608,78.0377609 108.909531,79.7748794" id="Fill-11" fill="#343535"></path>
                <path d="M16.5959669,57.9849202 C16.4444521,58.5718885 15.8307124,58.9146949 15.2232568,58.7572838 C14.6144047,58.5991731 14.2443456,58.0003115 14.3965586,57.4126435 C14.5480734,56.8298727 15.1632095,56.4835684 15.7706651,56.6416791 C16.3774225,56.7990901 16.7460852,57.4014498 16.5959669,57.9849202" id="Fill-13" fill="#F0F0F1"></path>
                <path d="M58.7751716,75.5389126 C58.5712899,76.3252684 57.7438935,76.7877071 56.9283669,76.5757269 C56.112142,76.3637466 55.6143077,75.5564028 55.8195858,74.7679482 C56.0227692,73.9843909 56.848071,73.5219522 57.6642959,73.7339324 C58.4805207,73.9473119 58.978355,74.7525569 58.7751716,75.5389126" id="Fill-15" fill="#F0F0F1"></path>
                <path d="M110.190844,83.7305846 C110.02327,84.3791182 109.340406,84.7611024 108.668015,84.5876004 C107.994228,84.4126992 107.582974,83.7452763 107.752643,83.0967427 C107.91882,82.4496083 108.60308,82.0683237 109.276169,82.2425253 C109.945767,82.4181261 110.35772,83.0841498 110.190844,83.7305846" id="Fill-17" fill="#F0F0F1"></path>
                <path d="M65.2398959,107.971119 C63.3155882,117.063882 54.3818012,122.246554 46.7516,121.459499 C38.6521917,120.622072 26.9611148,112.388424 28.4532213,101.799906 C29.8112686,102.435847 30.945884,104.311487 32.3800379,105.302127 C34.0264521,106.438985 35.8942036,107.195957 37.6844521,108.027787 C46.2125704,111.981254 56.3542864,111.160617 65.2398959,107.971119" id="Fill-19" fill="#343535"></path>
                <path d="M9.21998935,69.4173711 C9.3226284,69.6538375 9.27095976,69.9231854 9.37848639,70.1631498 C9.48950414,70.4122091 9.71572899,70.5836123 10.001303,70.4975609 C10.237303,70.4262012 10.4460722,70.1225727 10.3350544,69.8728138 C10.2296225,69.6377466 10.2812911,69.3676992 10.1765574,69.1270352 C10.0683325,68.8772763 9.83722012,68.7072723 9.55374083,68.7926241 C9.31564615,68.8646834 9.11106627,69.1669126 9.21998935,69.4173711" id="Fill-21" fill="#B89141"></path>
                <path d="M14.7491621,72.435396 C14.8287598,72.8075858 14.9069609,73.1790759 14.9858604,73.5512656 C15.1192213,74.1823091 16.0750911,73.8884751 15.9424284,73.2609296 C15.863529,72.8887399 15.7853278,72.5172498 15.7057302,72.1450601 C15.5709728,71.5147162 14.615103,71.8078506 14.7491621,72.435396" id="Fill-23" fill="#B89141"></path>
                <path d="M11.3088686,76.5643933 C11.3975432,76.7448913 11.4198864,76.9568715 11.5106556,77.143666 C11.6286556,77.3892273 11.9847503,77.4388992 12.1977089,77.3059743 C12.4469751,77.1513617 12.4790935,76.8624249 12.3603953,76.6168636 C12.2717207,76.4342668 12.2514722,76.225085 12.1586083,76.0375909 C11.8737325,75.4590178 11.0253893,75.9893182 11.3088686,76.5643933" id="Fill-25" fill="#B89141"></path>
                <path d="M7.78772071,81.4274858 C7.70114083,81.8451498 7.81774438,82.1977506 7.90921183,82.6014225 C8.0516497,83.2310668 9.00821775,82.938632 8.86577988,82.3117862 C8.81969704,82.1047032 8.71356686,81.8815292 8.75755503,81.669549 C8.88812308,81.0378059 7.91828876,80.7950431 7.78772071,81.4274858" id="Fill-27" fill="#B89141"></path>
                <path d="M12.2146757,81.2689553 C12.3152201,81.3613032 12.4262379,81.4249672 12.3976107,81.5718842 C12.2747231,82.2043269 13.2445574,82.4477893 13.367445,81.8139474 C13.4693858,81.2892439 13.2885456,80.8981648 12.9031254,80.5434652 C12.429729,80.1062123 11.7398828,80.8310028 12.2146757,81.2689553" id="Fill-29" fill="#B89141"></path>
                <path d="M16.4374698,78.4244324 C16.5184639,78.5629542 16.6001562,78.7007763 16.6818485,78.8378988 C17.0121089,79.3919858 17.863245,78.8665826 17.5315882,78.3110964 C17.4498959,78.1739739 17.3682036,78.0354522 17.2872095,77.89763 C16.9604402,77.3414443 16.1100024,77.8682466 16.4374698,78.4244324" id="Fill-31" fill="#B89141"></path>
                <path d="M10.3303763,92.8909992 C10.3918201,93.2436 10.3408497,93.6066949 10.4036899,93.9634933 C10.450471,94.2328411 10.7898083,94.369264 11.0265065,94.2979043 C11.310684,94.211853 11.4070391,93.9418055 11.360258,93.6731573 C11.298116,93.3205565 11.3497846,92.9574617 11.2869444,92.6006632 C11.2394651,92.332015 10.900826,92.1948925 10.6641278,92.2669518 C10.3799503,92.3523036 10.2835953,92.622351 10.3303763,92.8909992" id="Fill-33" fill="#B89141"></path>
                <path d="M16.683245,84.636153 C16.9052805,85.0279316 17.049813,85.464485 17.0896118,85.9136312 C17.1454698,86.5537696 18.1446296,86.5327814 18.0887716,85.8891451 C18.0336118,85.2588012 17.8450911,84.6592399 17.5329846,84.1093506 C17.2145941,83.5482676 16.3648544,84.07507 16.683245,84.636153" id="Fill-35" fill="#B89141"></path>
                <path d="M10.3549538,87.0304103 C10.4855219,87.2808688 10.5441728,87.5642087 10.6768355,87.816766 C10.976374,88.3876435 11.8254154,87.8594419 11.5265751,87.2899636 C11.3953089,87.0395051 11.3373562,86.7561652 11.2046935,86.5036079 C10.9058533,85.9320308 10.0568118,86.460932 10.3549538,87.0304103" id="Fill-37" fill="#B89141"></path>
                <path d="M6.09773728,87.5749826 C6.19479053,87.9730577 6.39797396,88.3340538 6.49642367,88.7321289 C6.65282604,89.3582751 7.60939408,89.0672395 7.45299172,88.4417929 C7.35454201,88.0437178 7.15135858,87.6834213 7.05430533,87.2846466 C6.90209231,86.6571012 5.94552426,86.9488364 6.09773728,87.5749826" id="Fill-39" fill="#B89141"></path>
                <path d="M14.1170592,66.1300684 C14.3188462,66.3140644 14.4082189,66.4756731 14.4703609,66.7422225 C14.6176864,67.369768 15.5735562,67.0780328 15.426929,66.451187 C15.3277811,66.0300249 15.1245976,65.6956138 14.8055089,65.4045783 C14.3293195,64.9701237 13.6394734,65.6949142 14.1170592,66.1300684" id="Fill-41" fill="#B89141"></path>
                <path d="M6.8225645,75.2936312 C6.9070497,75.7161925 6.93288402,76.1492478 7.01667101,76.5732083 C7.14165325,77.2049514 8.09752308,76.9111174 7.97323905,76.2828723 C7.88945207,75.8596115 7.86361775,75.4265561 7.77913254,75.0032953 C7.65275385,74.3708526 6.69758225,74.6653862 6.8225645,75.2936312" id="Fill-43" fill="#B89141"></path>
                <path d="M49.7623456,82.7645004 C49.841245,83.1366901 49.9208426,83.5081802 50.0011385,83.88037 C50.1365941,84.5107138 51.0924639,84.2175794 50.9577065,83.590034 C50.8774107,83.2178443 50.797813,82.8463542 50.7189136,82.4741644 C50.5848544,81.8431209 49.6289846,82.1369549 49.7623456,82.7645004" id="Fill-45" fill="#B89141"></path>
                <path d="M45.3275006,85.3859893 C45.1899503,85.9869498 45.282116,86.515851 45.5816544,87.050349 C45.8972521,87.6142304 46.7469917,87.0867285 46.4320923,86.5235466 C46.2645183,86.2248154 46.2205302,85.9631632 46.2973349,85.6280526 C46.4411692,84.9984083 45.4706367,84.7570447 45.3275006,85.3859893" id="Fill-47" fill="#B89141"></path>
                <path d="M41.2745846,92.236519 C41.1419219,92.7612225 41.1384308,93.2201632 41.5329278,93.6287324 C41.9818864,94.0939696 42.6689396,93.3663806 42.2213775,92.9039419 C42.1208331,92.7990012 42.2143953,92.5996138 42.2451172,92.4785822 C42.4036142,91.8517364 41.4330817,91.6117719 41.2745846,92.236519" id="Fill-49" fill="#B89141"></path>
                <path d="M41.6543491,86.8603364 C41.6299112,86.8358502 41.6054734,86.811364 41.5803373,86.7868779 C41.5552012,86.7029253 41.5307633,86.6189727 41.5056272,86.5357198 C41.5188935,86.5818937 41.5133077,86.627368 41.4888698,86.6714431 C41.3345621,87.2996881 42.3050947,87.5403522 42.4580059,86.9135063 C42.5501716,86.5399174 42.5089763,86.1754233 42.1361243,85.9837316 C41.5635799,85.6870992 41.0818047,86.563704 41.6543491,86.8603364" id="Fill-51" fill="#B89141"></path>
                <path d="M46.3441858,80.0473755 C46.4244817,80.1851976 46.5047775,80.3237194 46.5850734,80.4622411 C46.9062568,81.0219249 47.7559964,80.4951225 47.434813,79.9354387 C47.3545172,79.796917 47.2749195,79.6583953 47.1939254,79.5205731 C46.8678544,78.9636877 46.0174166,79.4904901 46.3441858,80.0473755" id="Fill-53" fill="#B89141"></path>
                <path d="M48.8193231,87.0860988 C48.9205657,87.461087 49.1565657,87.7143439 49.3576544,88.032664 C49.7032757,88.5769565 50.5537136,88.052253 50.2080923,87.5058617 C50.0565775,87.2672964 49.8512994,87.0749051 49.7758911,86.7957628 C49.6076189,86.172415 48.6510509,86.462751 48.8193231,87.0860988" id="Fill-55" fill="#B89141"></path>
                <path d="M56.4595787,83.9782447 C56.5608213,84.3539324 56.7961231,84.6071893 56.9986083,84.9248099 C57.3463243,85.4677032 58.1974604,84.9429996 57.8490462,84.3980075 C57.6968331,84.1594423 57.491555,83.9677506 57.4161467,83.6879087 C57.2485728,83.0645609 56.2920047,83.3548968 56.4595787,83.9782447" id="Fill-57" fill="#B89141"></path>
                <path d="M53.8535243,86.9167245 C53.9764118,87.1238075 54.0972047,87.3315901 54.2179976,87.5386731 C54.5433704,88.0962581 55.3938083,87.5694557 55.0677373,87.0118708 C54.9469444,86.8040881 54.8261515,86.5970051 54.7039621,86.3899221 C54.3757964,85.834436 53.5246604,86.3605387 53.8535243,86.9167245" id="Fill-59" fill="#B89141"></path>
                <path d="M52.9861893,80.1761727 C52.9024024,80.6770897 53.112568,81.0849593 53.2312663,81.5578921 C53.3883669,82.1840383 54.3449349,81.8930028 54.1878343,81.2675561 C54.1256923,81.0205957 53.9127337,80.6742913 53.9560237,80.418236 C54.0621538,79.7843941 53.0930178,79.5395324 52.9861893,80.1761727" id="Fill-61" fill="#B89141"></path>
                <path d="M47.7536225,92.8848427 C47.9686757,93.2724237 48.1013385,93.6963842 48.3177882,94.0839652 C48.6319893,94.6478466 49.481729,94.1203447 49.1675278,93.5571628 C48.9517763,93.1702814 48.8177172,92.7456213 48.6040604,92.3580403 C48.2919538,91.7927597 47.4422142,92.3202617 47.7536225,92.8848427" id="Fill-63" fill="#B89141"></path>
                <path d="M52.6459444,91.942685 C52.7220509,92.2673016 52.8533172,92.5618352 53.0208911,92.8486731 C53.3469621,93.4055585 54.1974,92.8794557 53.871329,92.3218708 C53.7442521,92.1049933 53.6597669,91.8986099 53.6025124,91.652349 C53.4544888,91.024104 52.4979207,91.3158391 52.6459444,91.942685" id="Fill-65" fill="#B89141"></path>
                <path d="M58.8440166,90.6719229 C58.997626,90.9643577 59.0660521,91.3134605 59.3921231,91.4701719 C59.9723479,91.747915 60.456916,90.8713103 59.8752947,90.5928676 C59.9409278,90.6747213 59.9479101,90.6740217 59.8934485,90.5893696 C59.8766911,90.5543893 59.8620284,90.5180099 59.8473657,90.4816304 C59.8012828,90.3668953 59.7510107,90.2542589 59.6937562,90.1451206 C59.3928213,89.5735435 58.5437799,90.1031443 58.8440166,90.6719229" id="Fill-67" fill="#B89141"></path>
                <path d="M61.1303538,83.1887407 C61.2525432,83.3951241 61.3733361,83.6029067 61.494129,83.8099897 C61.8208982,84.3661755 62.6713361,83.8400727 62.3445669,83.2831874 C62.2230757,83.0761043 62.1022828,82.8683217 61.9800935,82.6619383 C61.6519278,82.1064522 60.8014899,82.6325549 61.1303538,83.1887407" id="Fill-69" fill="#B89141"></path>
                <path d="M61.9765325,87.429115 C61.8759882,88.0069885 62.1468994,88.5183996 62.5623432,88.9080794 C63.0329467,89.34953 63.7213964,88.6240399 63.2507929,88.1825893 C63.1293018,88.0692534 62.9135503,87.8607711 62.9463669,87.6711783 C63.0559882,87.0373364 62.0861538,86.7931743 61.9765325,87.429115" id="Fill-71" fill="#B89141"></path>
                <path d="M60.4252864,97.8363652 C60.6794402,98.0812269 60.7827775,98.4709067 60.9531444,98.7738356 C61.268742,99.337717 62.1184817,98.810215 61.802884,98.2470332 C61.582245,97.8538553 61.4460911,97.4305945 61.1137361,97.1108751 C60.6494166,96.6624285 59.9616651,97.3879186 60.4252864,97.8363652" id="Fill-73" fill="#B89141"></path>
                <path d="M54.6573905,98.7180771 C54.7865621,98.967836 54.8249645,99.2791601 54.8843136,99.5506067 C55.0218639,100.18165 55.978432,99.8885158 55.8408817,99.2609704 C55.7598876,98.8915791 55.6816864,98.5291838 55.5071302,98.1912747 C55.2110828,97.6175988 54.3627396,98.1471996 54.6573905,98.7180771" id="Fill-75" fill="#B89141"></path>
                <path d="M45.0697858,98.5097348 C45.1361172,98.6230708 45.2087325,98.7056241 45.1968627,98.8371498 C45.1710284,99.109296 45.4607917,99.3310708 45.7079633,99.3254739 C46.0054071,99.3177783 46.1694899,99.0834107 46.1953243,98.811964 C46.2239515,98.5104344 46.0661527,98.2347901 45.9202237,97.9829324 C45.5955491,97.4246478 44.7458095,97.9514502 45.0697858,98.5097348" id="Fill-77" fill="#B89141"></path>
                <path d="M92.306303,97.8602917 C92.3865988,98.2317818 92.4654982,98.6032719 92.5443976,98.9747621 C92.6784568,99.6058055 93.6343266,99.3126711 93.5009657,98.6844261 C93.4220663,98.312936 93.3431669,97.9414458 93.262871,97.5699557 C93.1274154,96.9396119 92.1715456,97.2327462 92.306303,97.8602917" id="Fill-79" fill="#B89141"></path>
                <path d="M86.4021136,108.529264 C86.2659598,109.131624 86.3581254,109.659825 86.6562675,110.195723 C86.9704686,110.759604 87.8202083,110.232102 87.5067053,109.66892 C87.3398296,109.369489 87.2958414,109.107138 87.3726462,108.771327 C87.515084,108.141683 86.5452497,107.900319 86.4021136,108.529264" id="Fill-81" fill="#B89141"></path>
                <path d="M107.016085,92.5565881 C107.21857,92.7398846 107.307943,92.8993945 107.368689,93.1666435 C107.513221,93.7955881 108.469091,93.5031534 108.325257,92.8763075 C108.228902,92.4544458 108.023624,92.1207344 107.704535,91.831098 C107.227647,91.3980427 106.537103,92.1221336 107.016085,92.5565881" id="Fill-83" fill="#B89141"></path>
                <path d="M102.977413,88.7934842 C103.060502,88.9529941 103.066786,89.1439862 103.030478,89.3160889 C102.898514,89.947832 103.86765,90.1898953 104.001011,89.5581522 C104.095271,89.1104051 104.039413,88.6724526 103.827851,88.2666818 C103.528312,87.6951047 102.679271,88.2240059 102.977413,88.7934842" id="Fill-85" fill="#B89141"></path>
                <path d="M96.812716,105.179207 C96.8790473,105.329622 96.8371538,105.457649 96.7980533,105.612962 C96.6409527,106.240507 97.6114852,106.480472 97.7685858,105.855025 C97.8474852,105.540902 97.9033432,105.195997 97.769284,104.888871 C97.6603609,104.639112 97.430645,104.468408 97.1464675,104.55446 C96.909071,104.626519 96.7037929,104.928748 96.812716,105.179207" id="Fill-87" fill="#B89141"></path>
                <path d="M96.9341373,97.2348451 C97.0647053,97.4832047 97.1031077,97.7952285 97.1603621,98.0666751 C97.2944213,98.6977186 98.2502911,98.4045842 98.1169302,97.7763391 C98.0394272,97.4069478 97.9619243,97.0445526 97.7845751,96.7080427 C97.482942,96.1371652 96.6345988,96.6660664 96.9341373,97.2348451" id="Fill-89" fill="#B89141"></path>
                <path d="M91.4423893,106.258627 C91.5275728,106.418836 91.5359515,106.608429 91.4996438,106.781931 C91.3690757,107.413674 92.3382118,107.656437 92.4694781,107.023994 C92.562342,106.575548 92.5078805,106.136896 92.2928272,105.731825 C91.9890994,105.162346 91.140058,105.690548 91.4423893,106.258627" id="Fill-91" fill="#B89141"></path>
                <path d="M88.736768,100.532012 C88.6034071,101.056716 88.6013124,101.510759 88.9916201,101.922127 C89.4370876,102.390162 90.1234426,101.662574 89.680768,101.196637 C89.5830166,101.093795 89.6772769,100.891609 89.7066024,100.774075 C89.8657976,100.14723 88.8959633,99.9072652 88.736768,100.532012" id="Fill-93" fill="#B89141"></path>
                <path d="M95.0542367,100.433928 C95.1212663,100.548663 95.1938817,100.629817 95.1806154,100.762042 C95.1519882,101.034189 95.4466391,101.256663 95.691716,101.250366 C95.9912544,101.242671 96.1504497,101.008303 96.1790769,100.737556 C96.210497,100.435327 96.052,100.158283 95.9039763,99.9071253 C95.5772071,99.3509395 94.7267692,99.8770423 95.0542367,100.433928" id="Fill-95" fill="#B89141"></path>
                <path d="M102.56972,100.877687 C102.610217,101.091066 102.564832,101.270865 102.512465,101.477248 C102.35327,102.104094 103.323802,102.344058 103.482998,101.719311 C103.582146,101.327533 103.601696,100.986126 103.526288,100.587351 C103.476714,100.318703 103.142264,100.180881 102.904169,100.25294 C102.622086,100.338292 102.520146,100.609738 102.56972,100.877687" id="Fill-97" fill="#B89141"></path>
                <path d="M94.6355811,109.178987 C94.6837586,109.38537 94.7891905,109.607145 94.7452024,109.820525 C94.6160308,110.452268 95.5851669,110.69503 95.7150367,110.062588 C95.8009183,109.644924 95.6871077,109.292323 95.5921491,108.888651 C95.4455219,108.260406 94.4896521,108.552141 94.6355811,109.178987" id="Fill-99" fill="#B89141"></path>
                <path d="M86.9701195,115.089808 C87.0266757,115.354958 87.0937053,115.627104 87.0357527,115.897151 C86.900297,116.528195 87.8701314,116.770258 88.0048888,116.139215 C88.1026402,115.683772 88.0223444,115.247918 87.9266876,114.799472 C87.7919302,114.169128 86.8360604,114.462262 86.9701195,115.089808" id="Fill-101" fill="#B89141"></path>
                <path d="M80.4099479,105.938208 C80.4825633,106.064137 80.5363266,106.148789 80.5076994,106.297105 C80.3855101,106.929548 81.3553444,107.17301 81.4775337,106.539168 C81.559226,106.115208 81.4719479,105.779398 81.2596876,105.411406 C80.9378059,104.851722 80.0880663,105.378524 80.4099479,105.938208" id="Fill-103" fill="#B89141"></path>
                <path d="M82.0130024,112.57249 C82.0891089,112.896407 82.2217716,113.190241 82.3886473,113.477079 C82.7140201,114.034664 83.564458,113.507861 83.2390852,112.950276 C83.1120083,112.733399 83.0275231,112.528415 82.9695704,112.282154 C82.8215467,111.653909 81.8649787,111.945644 82.0130024,112.57249" id="Fill-105" fill="#B89141"></path>
                <path d="M86.459368,104.523607 C86.5473444,104.704805 86.5689893,104.915386 86.6597586,105.10218 C86.779155,105.347042 87.1345515,105.397413 87.3475101,105.264489 C87.5967763,105.109876 87.6295929,104.82024 87.5101964,104.574678 C87.4222201,104.393481 87.3998769,104.183599 87.3091077,103.996805 C87.1904095,103.751243 86.8343148,103.701572 86.620658,103.834496 C86.3727882,103.988409 86.3399716,104.278046 86.459368,104.523607" id="Fill-107" fill="#B89141"></path>
                <path d="M89.8836722,112.965318 C90.0044651,113.1731 90.1266544,113.380883 90.249542,113.587966 C90.5805006,114.141353 91.4309385,113.615251 91.0992817,113.060464 C90.9756959,112.854081 90.854903,112.646298 90.7334118,112.438515 C90.4087373,111.880231 89.5589976,112.407033 89.8836722,112.965318" id="Fill-109" fill="#B89141"></path>
                <path d="M9.96115503,64.5180391 C10.060303,64.9161142 10.2634864,65.2764107 10.3626343,65.6744858 C10.5190367,66.300632 11.4749065,66.0095964 11.3192024,65.3841498 C11.2200544,64.9860747 11.016871,64.6257783 10.9177231,64.2277032 C10.7620189,63.6015569 9.80545089,63.8925925 9.96115503,64.5180391" id="Fill-111" fill="#B89141"></path>
                <path d="M6.14479763,92.863015 C6.34658462,93.0463115 6.43525917,93.2093194 6.49879763,93.4751692 C6.64891598,94.1027146 7.60548402,93.8109794 7.45536568,93.1848332 C7.3548213,92.7636711 7.15303432,92.4278609 6.83324734,92.1375249 C6.35635976,91.70377 5.66651361,92.4285605 6.14479763,92.863015" id="Fill-113" fill="#B89141"></path>
                <path d="M15.3182154,89.9562972 C15.4550675,89.9989731 15.4613515,90.1535858 15.4899787,90.278815 C15.6366059,90.9077597 16.5924757,90.6153249 16.4465467,89.9884791 C16.329245,89.4847636 16.0604284,89.1398585 15.5598012,88.9845462 C14.9425704,88.7928545 14.7065704,89.7667043 15.3182154,89.9562972" id="Fill-115" fill="#B89141"></path>
                <path d="M11.9927799,69.1891601 C12.0639988,69.3150889 12.1191586,69.4018399 12.0912296,69.5494565 C11.9725314,70.1818992 12.9423657,70.4253617 13.0610639,69.7908202 C13.1413598,69.3661601 13.0526852,69.0324486 12.8425195,68.6623577 C12.524129,68.1005751 11.6743893,68.6280771 11.9927799,69.1891601" id="Fill-117" fill="#B89141"></path>
                <path d="M89.9300343,99.9416858 C90.4076201,99.8577332 90.9745787,99.679334 91.6427799,99.3848004 C96.1344604,97.4028202 99.8594899,92.4405237 102.655182,88.5500217 C105.119916,85.1198597 108.368756,80.6962589 108.964342,76.3852945 C109.724011,70.8703103 105.231632,72.7683379 102.440129,75.1281047 C97.7704012,79.0808715 93.7528154,83.8892549 90.7658095,89.2391324 C89.2660225,91.9298123 85.2114308,100.745532 89.9300343,99.9416858" id="Fill-119" fill="#978F80"></path>
                <path d="M109.432641,95.8906245 C109.573683,94.4179565 106.914144,94.6572213 105.608464,94.5312925 C103.50192,94.1619012 102.523008,94.0674545 101.553174,92.1582332 C101.009955,90.9500158 101.449837,86.3704032 99.8474107,85.8848775 C97.9203101,85.3685692 99.7154462,94.1262213 100.926866,95.2336957 C102.302369,96.3579605 109.554831,98.0475059 109.168712,95.2043123" id="Fill-121" fill="#EEC471"></path>
                <path d="M100.923654,87.3019968 C101.482234,87.1403881 101.749654,86.4967518 101.802021,85.9657518 C101.869051,85.2934316 101.573004,84.6476964 100.938317,84.3685542 C99.6095953,83.7843842 97.7879266,84.7862182 97.4520805,86.1630403 C97.2160805,87.1305937 97.6838911,88.3556016 98.5943763,88.8110443 C99.8791101,89.4525818 100.620625,87.9085542 100.856625,86.908819 C100.906199,86.7010364 100.939015,86.4890561 100.970436,86.2777755 C101.032578,85.8552142 100.386021,85.6908071 100.323879,86.1161668 C100.240092,86.6793486 99.9915243,88.452147 99.0628852,88.2730482 C98.422613,88.1499178 98.0888615,87.3124909 98.0616308,86.7402142 C98.0134533,85.7271866 98.9839858,84.988404 99.9237964,84.8932577 C100.509607,84.8330917 101.088436,85.0352775 101.144992,85.6852103 C101.170826,85.9797439 101.071678,86.5639138 100.730944,86.6625581 C100.318293,86.7821905 100.510305,87.4216292 100.923654,87.3019968" id="Fill-123" fill="#978F80"></path>
                <path d="M20.2425858,66.1383237 C20.1497219,64.3914107 19.0109172,60.3015213 19.9207041,58.6637466 C21.6536982,55.5456083 22.0838047,59.831387 22.3037456,61.1998138 C22.5104201,62.4961814 23.7176509,66.5252051 22.665426,67.6641617 C21.3199467,69.1263356 19.0919112,66.9659561 19.591142,65.3449719 C19.9158166,65.3211854 20.2404911,65.3505688 20.5700533,65.4009403" id="Fill-125" fill="#EEC471"></path>
                <path d="M6.64388876,64.8265648 C7.06910769,63.1293237 8.96618462,59.3318692 8.38386509,57.5506755 C7.2771787,54.1582921 6.03782959,58.2831617 5.56303669,59.5837269 C5.11128521,60.81713 3.1611432,64.5418257 3.9759716,65.8605806 C5.0184213,67.5522249 7.6172142,65.8584818 7.43497751,64.1717348 C7.12077633,64.086383 6.79610178,64.0535016 6.46374675,64.0395095" id="Fill-127" fill="#EEC471"></path>
                <path d="M11.3698935,64.0435672 C12.0038817,57.7646146 12.3886036,51.4618755 12.638568,45.1570375 C12.7132781,43.2723024 13.1412899,38.1672866 11.4257515,39.8540336 C10.2310888,41.0265711 9.62014201,47.0179862 9.37436686,49.0755237 C9.23123077,50.2676502 9.09507692,51.4597767 8.9596213,52.6512036 C8.46457988,54.1007846 6.75881657,54.3911206 6.37968047,56.0904605 C5.79177515,58.0381601 7.31460355,60.8190889 8.08404734,63.6636818 C8.05472189,64.4416423 8.01422485,65.2182036 8.00584615,65.996164 C7.98908876,68.063496 7.45704142,70.8780059 7.95906509,72.8676818 C8.67614201,75.7136739 9.83240237,74.541836 10.3993609,72.9985079 C11.3056568,70.527504 11.1038698,66.7013656 11.3698935,64.0435672" id="Fill-129" fill="#978F80"></path>
                <path d="M21.0424024,61.1430059 C21.8523432,58.6643063 23.3842485,58.1955711 22.5694201,55.4741087 C21.9682485,53.4732391 20.727503,53.004504 20.7233136,50.5090138 C20.7191243,48.8439545 21.5835266,41.5841561 20.2136095,40.504666 C18.1231243,38.8605949 17.6420473,47.173998 17.5840947,48.5221364 C17.3439053,54.1273696 16.6414911,59.8179545 16.734355,65.4112945 C16.7671716,67.3505988 16.5234911,73.1580178 18.1007811,74.545334 C20.8392189,76.9561719 20.2883195,63.4517016 21.0424024,61.1430059" id="Fill-131" fill="#978F80"></path>
                <path d="M32.400845,0.609425692 C28.423058,5.98239012 24.0437917,11.0300383 19.6554485,16.0657933 C18.7456615,17.1103032 19.3859337,18.9824455 20.9038746,18.8845008 C23.7826556,18.6984059 26.6118627,19.5652162 29.4871527,19.650568 C28.9872237,18.8264336 28.4872947,18.0015996 27.9873657,17.1767656 C26.5992947,19.4043071 25.0045491,21.5066194 23.4070107,23.5851451 C22.5886911,24.6492439 21.752916,25.6993506 20.892703,26.7284692 C20.5498746,27.1384375 20.1986675,27.5407103 19.836987,27.9324889 C19.4899692,28.3095759 19.0689396,28.4683862 19.7566911,28.1941411 C17.7786201,28.9825957 18.7212237,32.1860858 20.7216379,31.389236 C22.6424544,30.6238684 24.1198982,28.0626154 25.3320166,26.5150897 C27.283555,24.0230976 29.2288095,21.4779356 30.9038509,18.7886549 C31.6118509,17.6524968 30.5910462,16.3498328 29.4040639,16.3148526 C26.5245846,16.2281016 23.7128331,15.3612913 20.8207858,15.5480858 C21.2369278,16.4869553 21.6530698,17.4265245 22.0692118,18.3660937 C26.4568568,13.3303387 30.8368213,8.28199091 34.8146083,2.90972609 C36.0783953,1.20269051 33.6792947,-1.11789842 32.400845,0.609425692" id="Fill-133" fill="#F6DF70"></path>
                <g id="Group-137" stroke-width="1" fill="none" transform="translate(2.792899, 2.609526)">
                    <mask id="mask-44" fill="white">
                        <use xlink:href="#path-43"></use>
                    </mask>
                    <g id="Clip-136"></g>
                    <path d="M1.81629231,1.37633241 C1.26469467,5.93845494 0.785712426,10.5292613 0.0253455621,15.0613008 C-0.207861538,16.4528146 1.20185444,17.7086051 2.51800828,16.8837711 C4.33758225,15.7448146 6.66406746,15.7091348 8.50458817,14.5568858 C7.67370059,13.9496289 6.84211479,13.3416723 6.01122722,12.7344154 C5.50641065,15.8280676 5.45753491,18.9776881 4.96807929,22.0699411 C4.63362959,24.1820478 7.8650142,24.9998858 8.20086036,22.8758858 C8.6910142,19.7829332 8.73988994,16.6340123 9.24470651,13.5410597 C9.47162959,12.1502455 8.07238698,10.8909569 6.75134556,11.7178897 C4.93246982,12.8575458 2.60598462,12.8925261 0.76616213,14.0447751 C1.5970497,14.6527316 2.42723905,15.2599885 3.25812663,15.8672455 C4.01919172,11.3352059 4.49817396,6.7443996 5.04907337,2.18297668 C5.30462367,0.0715695652 2.07393728,-0.753964032 1.81629231,1.37633241" id="Fill-135" fill="#F6DF70" mask="url(#mask-44)"></path>
                </g>
            </g>
        </g>
    </g>
</svg>